<svg class="animated" id="freepik_stories-rabbit" xmlns="http://www.w3.org/2000/svg" viewBox="0 0 500 500" version="1.1" xmlns:xlink="http://www.w3.org/1999/xlink" xmlns:svgjs="http://svgjs.com/svgjs"><style>svg#freepik_stories-rabbit:not(.animated) .animable {opacity: 0;}svg#freepik_stories-rabbit.animated #freepik--Clouds--inject-131 {animation: 6s Infinite  linear shake;animation-delay: 0s;}svg#freepik_stories-rabbit.animated #freepik--Sun--inject-131 {animation: 3s Infinite  linear heartbeat;animation-delay: 0s;}svg#freepik_stories-rabbit.animated #freepik--rabbit-2--inject-131 {animation: 3s Infinite  linear floating;animation-delay: 0s;}svg#freepik_stories-rabbit.animated #freepik--rabbit-1--inject-131 {animation: 1.5s Infinite  linear floating;animation-delay: 0s;}            @keyframes shake {                10%, 90% {                    transform: translate3d(-1px, 0, 0);                  }                  20%, 80% {                    transform: translate3d(2px, 0, 0);                  }                  30%, 50%, 70% {                    transform: translate3d(-4px, 0, 0);                  }                  40%, 60% {                    transform: translate3d(4px, 0, 0);                  }            }                    @keyframes heartbeat {                0% {                    transform: scale(1);                }                10% {                    transform: scale(1.1);                }                30% {                    transform: scale(1);                }                40% {                    transform: scale(1);                }                50% {                    transform: scale(1.1);                }                60% {                    transform: scale(1);                }                100% {                    transform: scale(1);                }            }                    @keyframes floating {                0% {                    opacity: 1;                    transform: translateY(0px);                }                50% {                    transform: translateY(-10px);                }                100% {                    opacity: 1;                    transform: translateY(0px);                }            }        </style><g id="freepik--Bushes--inject-131" class="animable" style="transform-origin: 252.208px 215.577px;"><path id="freepik--bushes--inject-131" d="M8.92,284a8,8,0,0,0,4.78,5.21,18.47,18.47,0,0,0,7.39,1.36H489.33c7.28-2.41,6.52-8.12,5.94-10.53-.44-1.8-3.37-4.57-5.44-3.82a4.13,4.13,0,0,0-1.76-8,6.8,6.8,0,0,0,3.28-6.57A5.54,5.54,0,0,0,486,257a8.56,8.56,0,0,0,3.4-6.23,6.73,6.73,0,0,0-3.29-6.13,5.58,5.58,0,0,0-6.7,1,4.89,4.89,0,0,0-6.77-4.64,8.49,8.49,0,0,0,1.64-6.5,5.69,5.69,0,0,0-4.58-4.55,6.51,6.51,0,0,0,3.16-6.21c-.37-3.38-5.85-8.57-9-4.76a7.69,7.69,0,0,0,.57-8.85,6.82,6.82,0,0,0-8.36-2.4,7.32,7.32,0,0,0-11.19-9.11,9.12,9.12,0,0,0-.9-6.94,6.5,6.5,0,0,0-7.6-2.66c-1.58.48-6.23,3.41-5.45,5.69a5.63,5.63,0,0,0-10.9,1,7.91,7.91,0,0,0-7.16-8.82,5,5,0,0,0,3.69-5.37,7.54,7.54,0,0,0-3.92-5.63,4.77,4.77,0,0,0-3.64-8.4,6.7,6.7,0,0,0-6.82-5.72,8.34,8.34,0,0,0-7.25,5.71,8.4,8.4,0,0,0-12,9.82,11.73,11.73,0,0,0-6.07-3.37c-2.32-.34-5,.67-5.92,2.82-.81-2.41-2.16-4.8-4.4-6s-5.47-.78-6.73,1.42a10.07,10.07,0,0,0-1.31-3.6,10.78,10.78,0,0,0-1.13-1.55c-.18-.2-.35-.42-.53-.6a1.8,1.8,0,0,0-.19-.2c-.18-.15-1.14-.66-1.35-.57,2.44-1.06,2.59-4.82.77-6.75s-4.75-2.35-7.39-2.11a5.9,5.9,0,1,0-11.79-.07c-1.23-2.55-5.17-2.56-7.29-.69s-2.87,4.81-3.44,7.58a8.08,8.08,0,0,0-10.25-1,7.68,7.68,0,0,0-6.29-9.27c1.86-3.44-1.89-7.8-5.8-7.88s-7.31,2.63-9.91,5.55c-5.57-2.88-13.37,2.41-12.74,8.65-3.94-4.74-12.46-4.37-16,.7a8.12,8.12,0,0,0-9.79-5.47c1.67-5.09-4.89-10.59-9.62-8.06A6.05,6.05,0,1,0,234,148.62c-5.46-.56-10.06,6.33-7.45,11.16a6.88,6.88,0,0,0-9.3,1.95c1-2.43-2.09-5.28-4.45-4.16a5.1,5.1,0,0,0-9.58-3.41c.06-3-3.9-4.93-6.74-3.81s-4.46,4.14-5.19,7.1c-1.85-4.25-8.92-4.66-11.25-.65A9.36,9.36,0,0,0,161.45,155a8,8,0,0,0-14.63,6.19c-5.59-.92-9.91,7.37-5.95,11.41-2.21-2.77-7.38-2.08-8.77,1.18,1.27-3.21-2-7.2-5.43-6.55a6,6,0,1,0-11.46-3.17c-2.07-3.69-8.08-3-10.78.26s-3,7.8-3.23,12c-2.17-1.62-5.54.32-6.19,2.95s.6,5.34,2.12,7.58a8.44,8.44,0,0,0-9.81,5.2,5.06,5.06,0,0,0-9.3-3.57c2.43-3.94-8.85-2.67-10.08-1.83a8.12,8.12,0,0,0-3.5,6.82c-3.68-1.16-8-.87-10.95,1.68s-3.52,7.65-.64,10.23c-6.58-3.82-10.78,7.85-9.74,12.66A9.62,9.62,0,0,0,29.8,230.86a4.5,4.5,0,1,0-2.89,8.52c-6.81-2-10.37,7-5.88,11.51a13,13,0,0,0-7.38,1.9,7.58,7.58,0,0,0-3.53,6.48A5.38,5.38,0,0,0,15,264.34a8.34,8.34,0,0,0-5.61,5.77c-.6,2.74,1,6,3.71,6.65A6.33,6.33,0,0,0,8.92,284Z" style="fill: rgb(224, 224, 224); transform-origin: 252.208px 215.577px;" class="animable"></path></g><g id="freepik--Floor--inject-131" class="animable" style="transform-origin: 249.7px 326.45px;"><g id="freepik--Field--inject-131" class="animable" style="transform-origin: 249.7px 326.45px;"><ellipse id="freepik--Grass--inject-131" cx="249.7" cy="326.45" rx="244.73" ry="149.77" style="fill: rgb(224, 99, 119); transform-origin: 249.7px 326.45px;" class="animable"></ellipse><g id="freepik--grass--inject-131"><ellipse cx="249.7" cy="326.45" rx="244.73" ry="149.77" style="fill: rgb(255, 255, 255); opacity: 0.5; transform-origin: 249.7px 326.45px;" class="animable"></ellipse></g><g id="el2b8k0wp1x3u"><g style="opacity: 0.3; transform-origin: 251.929px 320.94px;" class="animable"><path d="M29.66,324.27a7.62,7.62,0,0,0-1.18-2.39,8,8,0,0,0-1.14-1.18c-.26-.23-.66-.61-1-.51-.11,0-.1.24-.05.32.25.33.62.55.84.9a5.83,5.83,0,0,1,.4,1,17.93,17.93,0,0,1,.8,2.65,19.4,19.4,0,0,1,.34,2.51c0,.42.06.83.11,1.25a5.49,5.49,0,0,0,.28,1.13c.05.13.26.36.41.21a4.16,4.16,0,0,0,.75-3A10,10,0,0,0,29.66,324.27Z" style="fill: rgb(224, 99, 119); transform-origin: 28.2562px 325.191px;" id="elfm3gopy3ws" class="animable"></path><path d="M32.75,311.43c-1.79,2.2-1.8,5.4-1.82,8.11,0,1.64,0,3.28.05,4.91a19.49,19.49,0,0,0,.45,5.24c.06.18.43.55.56.21.52-1.43.33-3.33.36-4.84s0-3.22,0-4.83a39.65,39.65,0,0,1,.21-4.36c.16-1.36.47-2.7.64-4.06C33.21,311.64,32.93,311.21,32.75,311.43Z" style="fill: rgb(224, 99, 119); transform-origin: 32.0651px 320.704px;" id="el5mvsmmg05ic" class="animable"></path><path d="M36.92,320.12c-.92.17-1.59,1.23-2,2a10.33,10.33,0,0,0-.81,2.24,15.83,15.83,0,0,0-.39,2.65c-.08,1-.28,2,.38,2.84.07.09.29.21.41.11.69-.58.52-1.71.58-2.53a18.91,18.91,0,0,1,.37-2.69,12.83,12.83,0,0,1,.74-2.19,9.24,9.24,0,0,0,.92-2.09C37.13,320.35,37.09,320.08,36.92,320.12Z" style="fill: rgb(224, 99, 119); transform-origin: 35.3748px 325.057px;" id="elibf18rrpz29" class="animable"></path><path d="M244.2,244.11a7.19,7.19,0,0,0-2.32-3.56c-.26-.23-.67-.61-1-.51-.11,0-.11.24-.05.31a11.94,11.94,0,0,1,.83.91,4.87,4.87,0,0,1,.41,1,18.8,18.8,0,0,1,.8,2.65,21,21,0,0,1,.34,2.51c0,.42.06.83.1,1.25a5.69,5.69,0,0,0,.29,1.13c0,.13.26.36.4.2a4.14,4.14,0,0,0,.76-3A10.54,10.54,0,0,0,244.2,244.11Z" style="fill: rgb(224, 99, 119); transform-origin: 242.794px 245.039px;" id="elspu3v8sjtjk" class="animable"></path><path d="M247.29,231.28c-1.79,2.2-1.8,5.39-1.82,8.11,0,1.63,0,3.27.05,4.91a19.53,19.53,0,0,0,.44,5.24c.07.18.44.55.57.21.52-1.43.33-3.33.35-4.85s0-3.22,0-4.83a37.17,37.17,0,0,1,.22-4.35c.16-1.37.47-2.71.63-4.07C247.74,231.49,247.47,231.05,247.29,231.28Z" style="fill: rgb(224, 99, 119); transform-origin: 246.6px 240.552px;" id="el7kid8dbsqo" class="animable"></path><path d="M251.45,240c-.92.18-1.59,1.23-2,2a9.93,9.93,0,0,0-.81,2.23,16,16,0,0,0-.4,2.66c-.07,1-.27,2,.38,2.83.08.1.3.22.41.12.69-.58.52-1.72.58-2.53a20,20,0,0,1,.38-2.69,12.37,12.37,0,0,1,.74-2.2,9.63,9.63,0,0,0,.92-2.08C251.67,240.2,251.63,239.93,251.45,240Z" style="fill: rgb(224, 99, 119); transform-origin: 249.905px 244.933px;" id="el1kwikek6a7e" class="animable"></path><path d="M333.54,441.61a6.71,6.71,0,0,0-1-2.09,7.48,7.48,0,0,0-1-1c-.23-.2-.59-.53-.91-.44-.1,0-.09.21-.05.27.22.29.54.49.74.8a4.9,4.9,0,0,1,.35.85,16.37,16.37,0,0,1,.7,2.32,17.74,17.74,0,0,1,.3,2.19c0,.37.05.72.09,1.09a4.23,4.23,0,0,0,.25,1c0,.12.23.32.35.18a3.64,3.64,0,0,0,.66-2.66A8.91,8.91,0,0,0,333.54,441.61Z" style="fill: rgb(224, 99, 119); transform-origin: 332.304px 442.446px;" id="elso0fb91rn2" class="animable"></path><path d="M336.24,430.38c-1.56,1.92-1.58,4.72-1.59,7.09,0,1.43,0,2.87,0,4.3a17.07,17.07,0,0,0,.39,4.58c.06.16.38.48.49.18a13.59,13.59,0,0,0,.31-4.23c0-1.41,0-2.82,0-4.23a32.41,32.41,0,0,1,.19-3.81c.13-1.19.4-2.36.55-3.55C336.64,430.56,336.4,430.18,336.24,430.38Z" style="fill: rgb(224, 99, 119); transform-origin: 335.609px 438.488px;" id="elthn5nbb05v" class="animable"></path><path d="M339.89,438c-.81.16-1.4,1.08-1.76,1.76a8.92,8.92,0,0,0-.71,1.95,14.09,14.09,0,0,0-.35,2.33,3.37,3.37,0,0,0,.34,2.48c.06.08.25.19.36.1.6-.51.45-1.5.5-2.22a17,17,0,0,1,.33-2.35,10.85,10.85,0,0,1,.65-1.92,8.44,8.44,0,0,0,.81-1.82C340.07,438.18,340,438,339.89,438Z" style="fill: rgb(224, 99, 119); transform-origin: 338.515px 442.327px;" id="elralza1emlh" class="animable"></path><path d="M434.62,401.7a7.31,7.31,0,0,1,1.09-2.18,8.11,8.11,0,0,1,1-1.08c.25-.21.62-.56,1-.47.1,0,.09.23.05.29a10.09,10.09,0,0,0-.77.83,4.64,4.64,0,0,0-.37.89,15.68,15.68,0,0,0-.73,2.42,17.66,17.66,0,0,0-.31,2.3c0,.38-.06.75-.1,1.14a4.58,4.58,0,0,1-.26,1c0,.12-.24.33-.37.19a3.82,3.82,0,0,1-.69-2.78A9.47,9.47,0,0,1,434.62,401.7Z" style="fill: rgb(224, 99, 119); transform-origin: 435.955px 402.516px;" id="elz34mqf7x9v" class="animable"></path><path d="M431.8,390c1.63,2,1.65,4.93,1.67,7.42,0,1.49,0,3-.05,4.49a17.82,17.82,0,0,1-.41,4.79c-.06.17-.4.51-.51.19a14.55,14.55,0,0,1-.33-4.43c0-1.47,0-2.94,0-4.41a35.3,35.3,0,0,0-.2-4c-.14-1.25-.43-2.47-.58-3.71C431.38,390.16,431.64,389.76,431.8,390Z" style="fill: rgb(224, 99, 119); transform-origin: 432.43px 398.474px;" id="elfqn3qq3cgh4" class="animable"></path><path d="M428,397.9c.84.17,1.46,1.13,1.83,1.84a9.25,9.25,0,0,1,.75,2,16.76,16.76,0,0,1,.36,2.43,3.5,3.5,0,0,1-.35,2.59c-.07.09-.27.2-.38.11-.63-.53-.47-1.57-.53-2.32a16.79,16.79,0,0,0-.34-2.45,10.81,10.81,0,0,0-.68-2,8.54,8.54,0,0,1-.84-1.91C427.79,398.12,427.83,397.87,428,397.9Z" style="fill: rgb(224, 99, 119); transform-origin: 429.429px 402.401px;" id="elyf93bsquslh" class="animable"></path><path d="M314.68,203.07a6.63,6.63,0,0,0-1-2.08,6.89,6.89,0,0,0-1-1c-.23-.2-.58-.54-.91-.45-.1,0-.09.22,0,.28.21.29.53.48.73.79a4.9,4.9,0,0,1,.35.85,16.64,16.64,0,0,1,.7,2.31,16,16,0,0,1,.29,2.19c0,.36.05.72.1,1.09a4.93,4.93,0,0,0,.24,1c0,.11.23.31.36.17a3.67,3.67,0,0,0,.66-2.65A9,9,0,0,0,314.68,203.07Z" style="fill: rgb(224, 99, 119); transform-origin: 313.467px 203.897px;" id="elogptt93d2a" class="animable"></path><path d="M317.38,191.87c-1.56,1.92-1.57,4.71-1.59,7.08,0,1.42,0,2.86,0,4.28a17,17,0,0,0,.38,4.57c.06.16.38.49.49.19a13.59,13.59,0,0,0,.31-4.23c0-1.41,0-2.81,0-4.21a34.59,34.59,0,0,1,.18-3.81c.14-1.19.41-2.35.56-3.54C317.78,192.06,317.54,191.68,317.38,191.87Z" style="fill: rgb(224, 99, 119); transform-origin: 316.745px 199.965px;" id="el3p9fn8osv15" class="animable"></path><path d="M321,199.45c-.8.15-1.39,1.07-1.75,1.75a8.41,8.41,0,0,0-.7,2,14,14,0,0,0-.35,2.32,3.3,3.3,0,0,0,.33,2.47c.07.08.26.19.36.1.6-.51.45-1.5.51-2.21a17,17,0,0,1,.33-2.35,10,10,0,0,1,.64-1.91,7.75,7.75,0,0,0,.8-1.82C321.2,199.66,321.16,199.42,321,199.45Z" style="fill: rgb(224, 99, 119); transform-origin: 319.636px 203.786px;" id="el6hvndyl9euh" class="animable"></path><path d="M206.41,444.86a6.74,6.74,0,0,0-1-2.08,8,8,0,0,0-1-1c-.23-.2-.59-.53-.91-.44-.1,0-.09.21,0,.27.22.29.54.48.73.79a4.52,4.52,0,0,1,.36.85,15.7,15.7,0,0,1,.69,2.31,16.24,16.24,0,0,1,.3,2.19c0,.37.05.72.09,1.09a5.74,5.74,0,0,0,.25,1c0,.11.23.31.36.18a3.64,3.64,0,0,0,.65-2.65A9,9,0,0,0,206.41,444.86Z" style="fill: rgb(224, 99, 119); transform-origin: 205.198px 445.694px;" id="el0ri91nozzc" class="animable"></path><path d="M209.1,433.66c-1.55,1.93-1.57,4.71-1.58,7.08,0,1.43,0,2.86,0,4.28a17.07,17.07,0,0,0,.39,4.58c.05.15.38.48.49.18a13.59,13.59,0,0,0,.31-4.23c0-1.4,0-2.81,0-4.21a34.41,34.41,0,0,1,.19-3.8c.14-1.19.41-2.36.56-3.55C209.5,433.85,209.26,433.47,209.1,433.66Z" style="fill: rgb(224, 99, 119); transform-origin: 208.482px 441.755px;" id="elxfqwpg9uwo" class="animable"></path><path d="M212.74,441.24c-.8.16-1.39,1.08-1.75,1.75a8.92,8.92,0,0,0-.71,1.95,15.09,15.09,0,0,0-.34,2.32,3.29,3.29,0,0,0,.33,2.47c.07.08.26.19.36.1.6-.5.45-1.49.5-2.21a16.68,16.68,0,0,1,.33-2.34,10.85,10.85,0,0,1,.65-1.92,8.32,8.32,0,0,0,.8-1.81C212.93,441.45,212.89,441.21,212.74,441.24Z" style="fill: rgb(224, 99, 119); transform-origin: 211.374px 445.551px;" id="eltr4sjvefpl" class="animable"></path><path d="M470.79,319.94a7.08,7.08,0,0,0-1.09-2.18,7.52,7.52,0,0,0-1-1.08c-.25-.21-.61-.56-1-.46-.1,0-.09.22,0,.28.22.3.56.51.76.83a4.64,4.64,0,0,1,.37.89,15.68,15.68,0,0,1,.73,2.42,16.1,16.1,0,0,1,.31,2.3c0,.38.06.75.1,1.14a4.8,4.8,0,0,0,.26,1c0,.11.24.32.37.18a3.78,3.78,0,0,0,.69-2.78A9.47,9.47,0,0,0,470.79,319.94Z" style="fill: rgb(224, 99, 119); transform-origin: 469.479px 320.755px;" id="elm2saad62cb" class="animable"></path><path d="M473.61,308.2c-1.63,2-1.64,4.94-1.66,7.42,0,1.5,0,3,0,4.49a17.82,17.82,0,0,0,.41,4.79c.06.17.4.51.52.19a14.53,14.53,0,0,0,.32-4.43c0-1.47,0-2.94,0-4.41a35.54,35.54,0,0,1,.2-4c.14-1.24.43-2.47.58-3.71C474,308.4,473.78,308,473.61,308.2Z" style="fill: rgb(224, 99, 119); transform-origin: 472.955px 316.684px;" id="el9telshqn5pb" class="animable"></path><path d="M477.42,316.15c-.84.16-1.45,1.12-1.83,1.83a8.74,8.74,0,0,0-.74,2,15.51,15.51,0,0,0-.37,2.43,3.5,3.5,0,0,0,.35,2.59c.07.09.27.2.38.11.63-.53.47-1.57.53-2.32a17,17,0,0,1,.34-2.45,11.6,11.6,0,0,1,.68-2,8.54,8.54,0,0,0,.84-1.91C477.62,316.36,477.58,316.12,477.42,316.15Z" style="fill: rgb(224, 99, 119); transform-origin: 475.989px 320.645px;" id="elba393mpkedj" class="animable"></path><path d="M113.71,419.36a7,7,0,0,0-1.09-2.19,8.08,8.08,0,0,0-1-1.08c-.25-.21-.61-.56-1-.46-.1,0-.09.22,0,.28.22.31.56.51.76.83a4.92,4.92,0,0,1,.37.89,16,16,0,0,1,.73,2.42,16.29,16.29,0,0,1,.31,2.3c0,.38.06.76.1,1.14a4.66,4.66,0,0,0,.26,1c0,.12.24.32.37.18a3.75,3.75,0,0,0,.69-2.77A9.4,9.4,0,0,0,113.71,419.36Z" style="fill: rgb(224, 99, 119); transform-origin: 112.399px 420.165px;" id="el3g4e1jvgr7a" class="animable"></path><path d="M116.53,407.62c-1.63,2-1.64,4.93-1.66,7.41,0,1.5,0,3,0,4.49a17.78,17.78,0,0,0,.41,4.79c.06.17.4.51.52.2a14.57,14.57,0,0,0,.32-4.43c0-1.48,0-2.95,0-4.42a35.24,35.24,0,0,1,.2-4c.14-1.25.43-2.48.58-3.72C117,407.81,116.7,407.41,116.53,407.62Z" style="fill: rgb(224, 99, 119); transform-origin: 115.884px 416.098px;" id="elzqitotutb6r" class="animable"></path><path d="M120.34,415.56c-.84.16-1.45,1.12-1.83,1.83a8.91,8.91,0,0,0-.74,2,15.46,15.46,0,0,0-.37,2.44,3.51,3.51,0,0,0,.35,2.59c.07.08.27.19.38.1.63-.53.47-1.57.53-2.31a16.93,16.93,0,0,1,.34-2.46,11.89,11.89,0,0,1,.68-2,8.67,8.67,0,0,0,.84-1.9C120.54,415.78,120.5,415.53,120.34,415.56Z" style="fill: rgb(224, 99, 119); transform-origin: 118.909px 420.056px;" id="elg198pif7q7n" class="animable"></path></g></g></g></g><g id="freepik--Clouds--inject-131" class="animable animator-active" style="transform-origin: 247.003px 88.0125px;"><path id="freepik--Cloud--inject-131" d="M436.49,85.09c0-4.57-5-7.75-10.68-8.28-6.69-.63-11.43,2.35-11.59,7.61-4.37-1.79-9-.64-8.63,4.16-1.14-1.31-5.39-1.27-6.92-.9a6,6,0,0,0-3.81,3.24,4.42,4.42,0,0,0-.39,2.46c-2.55-.84-8.34-1.35-9.79,1-2.58,4.16,7.72,4.29,9.8,3,.44,3.24,11.52,3.77,14.2.79,2.09,2.11,5.1,2.57,8.35,2.77,3.53.21,6.56-.13,9.63-2.14a2.21,2.21,0,0,1,1-.46,2.12,2.12,0,0,1,1.08.32c4.12,2,9.22,2.76,13.2.49a2.36,2.36,0,0,1,.77-.33,2,2,0,0,1,1,.27c3.85,1.76,8.63,2.55,12.12.17a5.59,5.59,0,0,1,1.35-.8c1.89-.61,3.8.42,5.81-.43,1.6-.68,2.85-1.86,1.44-3.49-.81-.93-3.77-1.52-5-1.24-1.33-2.6-6.65-5.07-9.7-2.87-.12-3.16-3-5.63-7.07-6.26C441.31,84,438,83.8,436.49,85.09Z" style="fill: rgb(245, 245, 245); transform-origin: 424.656px 88.8603px;" class="animable"></path><path id="freepik--cloud--inject-131" d="M321.75,104.93c0-5.05-5.54-8.56-11.8-9.15-7.39-.7-12.63,2.6-12.8,8.41-4.83-2-9.92-.71-9.54,4.6-1.26-1.45-6-1.41-7.65-1a6.57,6.57,0,0,0-4.2,3.58,4.87,4.87,0,0,0-.44,2.72c-2.82-.92-9.22-1.49-10.82,1.1-2.85,4.59,8.54,4.74,10.83,3.35.49,3.57,12.73,4.16,15.69.86-.45.5,4.62,2.46,5,2.55a52.75,52.75,0,0,0,5.53,1.16,16.61,16.61,0,0,0,11.92-3.32,16.85,16.85,0,0,0,20.68.11,13.45,13.45,0,0,0,6.05,1.89,6.31,6.31,0,0,0,5.49-2.69,10.69,10.69,0,0,0,6.38.31,2.79,2.79,0,0,0,1.72-1,2,2,0,0,0,0-2.06,5.3,5.3,0,0,0-3.16-2,7.07,7.07,0,0,0-3.5-.3c-.3-2.55-3.16-4.06-5.48-4.28a12.1,12.1,0,0,0-4.8.67c-.22.07-.51.12-.65-.06a.59.59,0,0,1-.09-.32c-.34-3.62-4.39-5.64-7.56-6.13C327.08,103.71,323.47,103.51,321.75,104.93Z" style="fill: rgb(245, 245, 245); transform-origin: 309.06px 109.539px;" class="animable"></path><path id="freepik--cloud--inject-131" d="M83.91,62.13c0-5.19-5.69-8.8-12.13-9.4-7.58-.72-13,2.66-13.15,8.64-5-2-10.19-.73-9.79,4.72-.12-1.65-6.23-1.31-7.21-1.15-3.06.5-5.32,4.07-5.24,7A9.88,9.88,0,0,0,30,74.32a2.75,2.75,0,0,0-1,1.29,2.11,2.11,0,0,0,.83,2.1,5.22,5.22,0,0,0,2.2.87c2.1.45,4.1-.45,6.16-.13a9.89,9.89,0,0,1,2.37.85A14.23,14.23,0,0,0,54,77.86a14.6,14.6,0,0,0,9,2.86,14.87,14.87,0,0,0,4.63-.85c.41-.15,3-2,3.25-1.86a24.54,24.54,0,0,0,10.35,3.07,13.63,13.63,0,0,0,10-3.52,18.14,18.14,0,0,0,6.46,1.62,7.69,7.69,0,0,0,2.68-.44c.28-.1,2.68-1.47,2.67-1.48a10.31,10.31,0,0,0,8.33.71c1.83-.61,6.21-2.77,4.2-5.1-.92-1.06-4.28-1.73-5.7-1.4-1.5-3-7.54-5.76-11-3.26-.14-3.59-3.42-6.39-8-7.1C89.38,60.87,85.67,60.66,83.91,62.13Z" style="fill: rgb(245, 245, 245); transform-origin: 72.5246px 66.8697px;" class="animable"></path></g><g id="freepik--Sun--inject-131" class="animable" style="transform-origin: 352.4px 52.12px;"><g id="freepik--sun--inject-131"><circle cx="352.4" cy="52.12" r="16.7" style="fill: rgb(255, 189, 167); transform-origin: 352.4px 52.12px; transform: rotate(-80.78deg);" class="animable"></circle></g></g><g id="freepik--Shadows--inject-131" class="animable" style="transform-origin: 261.535px 349.28px;"><g id="freepik--Shadow--inject-131"><ellipse cx="145.61" cy="342.77" rx="92.04" ry="53.14" style="fill: rgb(224, 99, 119); opacity: 0.3; transform-origin: 145.61px 342.77px;" class="animable"></ellipse></g><g id="freepik--shadow--inject-131"><ellipse cx="346.2" cy="349.28" rx="108.59" ry="62.69" style="fill: rgb(224, 99, 119); opacity: 0.3; transform-origin: 346.2px 349.28px; transform: rotate(-19.53deg);" class="animable"></ellipse></g></g><g id="freepik--rabbit-2--inject-131" class="animable" style="transform-origin: 355.708px 304.374px;"><g id="freepik--Rabbit--inject-131" class="animable" style="transform-origin: 355.708px 304.374px;"><path d="M415.76,251a8.89,8.89,0,0,0,2.52,4.17,10,10,0,0,0-4.11,4.28c-2.15,4.85,3,9.76,7.37,10.75a11.06,11.06,0,0,0-.43,9.79,11.74,11.74,0,0,0,10,6.83c-1.88-.09,2,7.23,2.47,7.74a12.71,12.71,0,0,0,7.38,4.14c5.39.86,11-1.84,14.28-6.19,1.77-2.37,2.16-4.62,2.51-7.42,4.22.53,8.9-5,9.83-8.46,1.1-4.17-.73-9.27-3.52-12.56a15,15,0,0,0,2.65-14c-1.77-5.42-5.4-8.6-9.82-9.87a14.82,14.82,0,0,0-10.65.65,9.36,9.36,0,0,0-8.58-5.56,10.84,10.84,0,0,0-9,5.23A9,9,0,0,0,415.76,251Z" style="fill: rgb(224, 99, 119); transform-origin: 440.785px 267.075px;" id="elr6os1bxqzyn" class="animable"></path><g id="el1qxkqmv9rqn"><g style="opacity: 0.8; transform-origin: 440.785px 267.075px;" class="animable"><path d="M415.76,251a8.89,8.89,0,0,0,2.52,4.17,10,10,0,0,0-4.11,4.28c-2.15,4.85,3,9.76,7.37,10.75a11.06,11.06,0,0,0-.43,9.79,11.74,11.74,0,0,0,10,6.83c-1.88-.09,2,7.23,2.47,7.74a12.71,12.71,0,0,0,7.38,4.14c5.39.86,11-1.84,14.28-6.19,1.77-2.37,2.16-4.62,2.51-7.42,4.22.53,8.9-5,9.83-8.46,1.1-4.17-.73-9.27-3.52-12.56a15,15,0,0,0,2.65-14c-1.77-5.42-5.4-8.6-9.82-9.87a14.82,14.82,0,0,0-10.65.65,9.36,9.36,0,0,0-8.58-5.56,10.84,10.84,0,0,0-9,5.23A9,9,0,0,0,415.76,251Z" style="fill: rgb(255, 255, 255); transform-origin: 440.785px 267.075px;" id="elghq80hvp7m7" class="animable"></path></g></g><g id="elwi9xqyx65pr"><path d="M467,258.17a19.06,19.06,0,0,1-8.18,5.38c1.73,2.22,3.54,4.66,3.6,7.47a6.62,6.62,0,0,1-10.45,5.55c.43,2.24-.92,6.08-3.58,7.05-.77-14.17-2.57-30.51-19.14-43.94a9.65,9.65,0,0,0-.56.81A9.38,9.38,0,0,0,417,243.26a8.85,8.85,0,0,0-1.49,4.06,10.89,10.89,0,0,0,.94,1.21,10.36,10.36,0,0,0-1,.66,11.3,11.3,0,0,0,.32,1.83,8.89,8.89,0,0,0,2.52,4.17,10,10,0,0,0-4.11,4.28c-2.15,4.85,3,9.76,7.37,10.75a11.06,11.06,0,0,0-.43,9.79,11.74,11.74,0,0,0,10,6.83c-1.88-.09,2,7.23,2.47,7.74a12.71,12.71,0,0,0,7.38,4.14c5.39.86,11-1.84,14.28-6.19,1.77-2.37,2.16-4.62,2.51-7.42,4.22.53,8.9-5,9.83-8.46,1.1-4.17-.73-9.27-3.52-12.56A14.26,14.26,0,0,0,467,258.17Z" style="fill: rgb(224, 99, 119); opacity: 0.15; transform-origin: 440.795px 269.192px;" class="animable"></path></g><path d="M262,365.25c4.81-6.31,9.53-12.68,12.5-20,1.35-3.32,2.33-6.79,3.88-10s3.8-6.28,7-7.92a18.86,18.86,0,0,1,7.75-1.73,23.1,23.1,0,0,1,6.16.38c6,1.33,11.39,6.82,14,12.15A31.66,31.66,0,0,1,316,358.79c-1.62,7.45-5.9,14-10.37,20.2-4.88,6.73-10.74,9.23-18.51,11.69-8.16,2.59-16.74,4.23-25.32,3.42-6.66-.62-11.47-5.13-10.18-12.28.51-2.83,2.12-5.33,3.78-7.69C257.51,371.12,259.78,368.19,262,365.25Z" style="fill: rgb(255, 255, 255); transform-origin: 284.036px 359.924px;" id="elw91gf2xxg4k" class="animable"></path><g id="elulg8zszi74"><path d="M262,365.25c4.81-6.31,9.53-12.68,12.5-20,1.35-3.32,2.33-6.79,3.88-10s3.8-6.28,7-7.92a18.86,18.86,0,0,1,7.75-1.73,23.1,23.1,0,0,1,6.16.38c6,1.33,11.39,6.82,14,12.15A31.66,31.66,0,0,1,316,358.79c-1.62,7.45-5.9,14-10.37,20.2-4.88,6.73-10.74,9.23-18.51,11.69-8.16,2.59-16.74,4.23-25.32,3.42-6.66-.62-11.47-5.13-10.18-12.28.51-2.83,2.12-5.33,3.78-7.69C257.51,371.12,259.78,368.19,262,365.25Z" style="fill: rgb(224, 99, 119); opacity: 0.15; transform-origin: 284.036px 359.924px;" class="animable"></path></g><path d="M326.2,386.62A40,40,0,0,0,339.61,378c4.8-4.94,12-8.41,17.85-12.11,19.9-12.62,43-19.1,62-32.73,16.37-11.69,26.67-31.93,25.43-52.13-1.75-28.61-22-52.12-49.58-56.27a99.23,99.23,0,0,0-48.93,5.3c-26.21,10.19-37.59,18.47-52.75,36-12.11,14-19,31.38-23.85,49-1,3.52-1.95,7-2.58,10.63a81.24,81.24,0,0,0-.77,19.21c.38,6.19,1.22,12.48,3.79,18.13a63.52,63.52,0,0,0,5.55,9.22c3.89,5.69,8.28,11.76,14.87,13.81-.21-.72-.41-1.43-.61-2.15,2.09,3,5.69,4.63,9.25,5.51a40.6,40.6,0,0,0,21.5-.91C322.59,388,324.4,387.36,326.2,386.62Z" style="fill: rgb(255, 255, 255); transform-origin: 355.585px 307.101px;" id="el5usycsiau" class="animable"></path><g id="elan7zz2ofcqv"><path d="M295.18,388a23.47,23.47,0,0,0,4.13,1.43,35.46,35.46,0,0,0,4.66.8,33.44,33.44,0,0,1,6.06-3.39c4.66-1.87,9.6-3,14.18-5a37.82,37.82,0,0,0,18-17.08c2.25-4.38,3.86-9.6,2.48-14.49-1-3.42-4-7.67-7.28-9.28-3.74-1.85-9,.59-11.61,3.26-3.29,3.32-4.93,7.9-6.24,12.38-2.14,7.3-4.28,13.63-10.29,18.62C304.49,379.23,298.09,382.24,295.18,388Z" style="fill: rgb(224, 99, 119); opacity: 0.2; transform-origin: 320.191px 365.287px;" class="animable"></path></g><g id="el3kumlpa023f"><path d="M393.57,278.62a30.72,30.72,0,0,0-13.26,12.91,40.31,40.31,0,0,0-4.71,18,32.47,32.47,0,0,0,1.67,12.15,19.84,19.84,0,0,0,7.22,9.74,10.82,10.82,0,0,1-.14-7.86,24.3,24.3,0,0,0,7.45,13,19.06,19.06,0,0,0-10.7,9.06c-1.81,3.44-2.38,8,.19,11a8.33,8.33,0,0,0,5.91,2.57,18.28,18.28,0,0,0,6.48-1.13c9-3,17.14-9.13,21.44-17.58,4.05-8,4.46-17.24,4.69-26.18a65.4,65.4,0,0,0-2.1-19.21c-1.64-5.78-4.68-11.31-9.43-15S398.88,276.05,393.57,278.62Z" style="fill: rgb(224, 99, 119); opacity: 0.2; transform-origin: 397.707px 318.074px;" class="animable"></path></g><g id="elcjxnexmbnot"><g style="opacity: 0.2; transform-origin: 355.625px 307.115px;" class="animable"><path d="M381.45,224.78a92.18,92.18,0,0,1,13.74,1c26.94,4.06,47,26.81,48.73,55.34,1.19,19.43-8.63,39.55-25,51.25-10.26,7.33-21.93,12.69-33.21,17.87-9.64,4.43-19.61,9-28.78,14.83-1.53,1-3.14,1.91-4.83,2.91-4.71,2.76-9.58,5.62-13.21,9.35a38.39,38.39,0,0,1-13.06,8.35c-1.7.7-3.48,1.33-5.31,1.89a42.38,42.38,0,0,1-12.4,1.91,35.25,35.25,0,0,1-8.55-1c-4.12-1-7-2.74-8.67-5.1a1,1,0,0,0-.83-.43,1.07,1.07,0,0,0-.43.09,1,1,0,0,0-.54,1.19l.06.21c-5.1-2.33-8.84-7.34-12.52-12.72a61.82,61.82,0,0,1-5.46-9.07c-2.66-5.82-3.36-12.25-3.71-17.78a79.17,79.17,0,0,1,.76-19c.63-3.55,1.61-7.11,2.56-10.54,5.88-21.3,13.39-36.74,23.64-48.6,15.53-18,27.27-26,52.35-35.72a97.86,97.86,0,0,1,34.68-6.26m0-1a98.76,98.76,0,0,0-35,6.32c-26.21,10.19-37.59,18.47-52.75,36-12.11,14-19,31.38-23.85,49-1,3.52-1.95,7-2.58,10.63a81.24,81.24,0,0,0-.77,19.21c.38,6.19,1.22,12.48,3.79,18.13a63.52,63.52,0,0,0,5.55,9.22c3.89,5.69,8.28,11.76,14.87,13.81-.21-.72-.41-1.43-.61-2.15,2.09,3,5.69,4.63,9.25,5.51a36.78,36.78,0,0,0,8.8,1.05,43.49,43.49,0,0,0,12.7-2c1.78-.54,3.59-1.18,5.39-1.92A40,40,0,0,0,339.61,378c4.8-4.94,12-8.41,17.85-12.11,19.9-12.62,43-19.1,62-32.73,16.37-11.69,26.67-31.93,25.43-52.13-1.75-28.61-22-52.12-49.58-56.27a92.46,92.46,0,0,0-13.89-1Z" style="fill: rgb(224, 99, 119); transform-origin: 355.625px 307.115px;" id="elhm1y2909li" class="animable"></path></g></g><path d="M307.53,381.26c6-4,12-8.12,14.91-14.07,4.2-8.61,1.57-20.22,11.07-26.21,12.79-8.06,27.29,8.17,30.73,19.12,1.81,5.78,2.22,12.17.05,17.83-3.78,9.85-14.19,15.26-23.92,19.34-12.33,5.18-25.47,9.74-38.79,8.49-5.55-.52-10.88-2.93-9-9.45a17.12,17.12,0,0,1,4.27-6.68C299.77,386.52,303.63,383.9,307.53,381.26Z" style="fill: rgb(255, 255, 255); transform-origin: 328.979px 372.391px;" id="elydma84320p" class="animable"></path><g id="eleut9xdw60tq"><path d="M307.53,381.26c6-4,12-8.12,14.91-14.07,4.2-8.61,1.57-20.22,11.07-26.21,12.79-8.06,27.29,8.17,30.73,19.12,1.81,5.78,2.22,12.17.05,17.83-3.78,9.85-14.19,15.26-23.92,19.34-12.33,5.18-25.47,9.74-38.79,8.49-5.55-.52-10.88-2.93-9-9.45a17.12,17.12,0,0,1,4.27-6.68C299.77,386.52,303.63,383.9,307.53,381.26Z" style="fill: rgb(224, 99, 119); opacity: 0.05; transform-origin: 328.979px 372.391px;" class="animable"></path></g><path d="M446.89,304.75a78.91,78.91,0,0,1-8.66,23.88c-2.57,4.67-2.09,10.19-4.15,15.06-1.78,4.2-3.56,5.6-11.09,9.88s-19,9.4-29.54,10c-8.38.51-15.82-5.8-10-13.68a46.81,46.81,0,0,1,15.9-13c-5.91-3.71-9.08-9.15-11.88-15.55a12.21,12.21,0,0,1-1.29-6.08,16.81,16.81,0,0,0-2.85,5.27l-.27-.79a40.87,40.87,0,0,1,.76-27.15c3.19-8.25,10.48-15.05,18.08-19.33a42.43,42.43,0,0,1,21.45-5.55c6.47.17,16.55,2.5,19.91,8.69C447.94,285.13,448.58,295.06,446.89,304.75Z" style="fill: rgb(255, 255, 255); transform-origin: 414.422px 315.653px;" id="el7gzpxbj2uy" class="animable"></path><g id="elntxgnh3bmwk"><path d="M446.89,304.75a78.91,78.91,0,0,1-8.66,23.88c-2.57,4.67-2.09,10.19-4.15,15.06-1.78,4.2-3.56,5.6-11.09,9.88s-19,9.4-29.54,10c-8.38.51-15.82-5.8-10-13.68a46.81,46.81,0,0,1,15.9-13c-5.91-3.71-9.08-9.15-11.88-15.55a12.21,12.21,0,0,1-1.29-6.08,16.81,16.81,0,0,0-2.85,5.27l-.27-.79a40.87,40.87,0,0,1,.76-27.15c3.19-8.25,10.48-15.05,18.08-19.33a42.43,42.43,0,0,1,21.45-5.55c6.47.17,16.55,2.5,19.91,8.69C447.94,285.13,448.58,295.06,446.89,304.75Z" style="fill: rgb(224, 99, 119); opacity: 0.05; transform-origin: 414.422px 315.653px;" class="animable"></path></g><path d="M281.72,283.07c.17-2.35-1.33-4.57-3.2-7.33a39.19,39.19,0,0,1-4.09-7.18c-.17-.43-.32-.82-.45-1.2s-.19-.5-.26-.73a1.11,1.11,0,0,0-.07-.22,86,86,0,0,1-4-25.43c-.06-5.18,1.37-10.3,1.37-15.45a15.24,15.24,0,0,1-7.79,1.92c-5.69-.14-2.81-7.4-1-10.37A32.06,32.06,0,0,1,272.47,207c4.27-2.79,10-5.86,15-3,4.79,2.78,5.4,7.34,7.09,12.11,1.91,5.38,3.91,10.77,4.87,16.42,2,11.79,3.27,22.8.86,34.73-1.84,9.17-1.63,12.55-.93,13.81Z" style="fill: rgb(250, 250, 250); transform-origin: 280.74px 242.963px;" id="elygl4vt9lv8j" class="animable"></path><g id="elegiy43o2vaj"><path d="M271.06,225.53l1-1.67c0-2.27-.48-3.61-1.23-3.5s-4.54,4.9-7.72,4.42c-1.79-.27-2.51-2-2.6-3.83-1,3.07-1.06,6.4,2.78,6.5a15.24,15.24,0,0,0,7.79-1.92Z" style="fill: rgb(224, 99, 119); opacity: 0.2; transform-origin: 265.996px 223.904px;" class="animable"></path></g><g id="eldl4aqzp7yh"><g style="opacity: 0.2; transform-origin: 280.764px 242.905px;" class="animable"><path d="M283.1,203.79h0a7.55,7.55,0,0,1,3.89,1c3.62,2.1,4.65,5.33,5.84,9.07.26.82.53,1.67.83,2.52l.42,1.19a90.54,90.54,0,0,1,4.4,15.06c1.8,10.66,3.35,22.1.88,34.38-1.58,7.84-1.64,11.39-1.29,13.17L282.67,282c-.27-2.24-1.71-4.37-3.35-6.79a38.09,38.09,0,0,1-4-7c-.16-.42-.31-.8-.45-1.2-.09-.23-.16-.43-.22-.63a2.14,2.14,0,0,0-.09-.27A85.13,85.13,0,0,1,270.67,241a53.26,53.26,0,0,1,.68-7.76,57.23,57.23,0,0,0,.69-7.67v-1.67l-1.46.81a14.22,14.22,0,0,1-6.93,1.81h-.35c-1.6,0-2-.73-2.1-1-.89-1.6.3-5.29,1.87-7.93a30.9,30.9,0,0,1,9.93-9.81c2.84-1.85,6.55-4,10.1-4m0-1c-3.75,0-7.58,2.15-10.63,4.14a32.06,32.06,0,0,0-10.24,10.13c-1.77,3-4.65,10.23,1,10.37h.38a15.25,15.25,0,0,0,7.41-1.93c0,5.15-1.43,10.27-1.37,15.45a86,86,0,0,0,4,25.43,1.11,1.11,0,0,1,.07.22c.07.23.15.46.26.73s.28.77.45,1.2a39.19,39.19,0,0,0,4.09,7.18c1.87,2.76,3.37,5,3.2,7.33l17.66-2c-.7-1.26-.91-4.64.93-13.81,2.41-11.93,1.13-22.94-.86-34.73-1-5.65-3-11-4.87-16.42-1.69-4.77-2.3-9.33-7.09-12.11a8.63,8.63,0,0,0-4.39-1.16Z" style="fill: rgb(224, 99, 119); transform-origin: 280.764px 242.905px;" id="els8n90rwbocg" class="animable"></path></g></g><g id="elxr7ylbi2zm"><path d="M299.45,232.5c-1-5.65-3-11-4.87-16.42-.76-2.14-1.31-4.24-2.11-6.16.56,2,1.16,4.07,1.7,6.11a100,100,0,0,1,2.53,37.65c-.82,6.56-2.45,13.37-6.93,18.24-2.27,2.48-6,4.91-9.22,3.19a17.55,17.55,0,0,1-5.39-5,45.62,45.62,0,0,0,3.36,5.59c1.87,2.76,3.37,5,3.2,7.33l17.66-2c-.7-1.26-.91-4.64.93-13.81C302.72,255.3,301.44,244.29,299.45,232.5Z" style="fill: rgb(224, 99, 119); opacity: 0.2; transform-origin: 288.391px 246.475px;" class="animable"></path></g><path d="M330.58,290.48a40.46,40.46,0,0,0-10.86-7.15c-8.41-3.81-17.67-6-26.89-5.42s-18.38,4.14-25,10.63a44,44,0,0,0-6.21,7.91c-5.7,9-7.25,19.25-11.53,28.82-3.77,8.45-7.47,15.48-6.4,25.17.8,7.23,5.35,17.79,18.81,24.38,12.26,6,33.54,8.2,53.75.07,11.42-4.6,23.28-13.9,27-26.1A64.13,64.13,0,0,0,345.46,322C343.88,309.76,339.21,298.44,330.58,290.48Z" style="fill: rgb(250, 250, 250); transform-origin: 294.747px 329.003px;" id="el0t7tyetxx4hm" class="animable"></path><g id="el2kdd7b1211u"><g style="opacity: 0.2; transform-origin: 294.802px 329.035px;" class="animable"><path d="M295.85,278.82a56.93,56.93,0,0,1,23.46,5.42,40,40,0,0,1,10.59,7c7.85,7.25,12.89,17.93,14.56,30.89a63.34,63.34,0,0,1-2.12,26.39C338.53,361,326.19,369.82,315.92,374a73.76,73.76,0,0,1-27.26,5.23c-9.62,0-18.74-1.88-25.68-5.27-14.92-7.32-17.73-18.94-18.25-23.59-.95-8.57,2-15,5.34-22.47.33-.72.65-1.44,1-2.18a119.86,119.86,0,0,0,4.24-11.57c2-6,3.83-11.74,7.22-17.12a42.19,42.19,0,0,1,6.07-7.74c6.05-6,14.91-9.73,24.31-10.34,1-.06,2-.09,3-.09m0-1c-1,0-2,0-3,.1-9.22.6-18.38,4.14-25,10.63a44,44,0,0,0-6.21,7.91c-5.7,9-7.25,19.25-11.53,28.82-3.77,8.45-7.47,15.48-6.4,25.17.8,7.23,5.35,17.79,18.81,24.38,6.61,3.24,15.85,5.37,26.12,5.37a74.23,74.23,0,0,0,27.63-5.3c11.42-4.6,23.28-13.9,27-26.1A64.13,64.13,0,0,0,345.46,322c-1.58-12.22-6.25-23.54-14.88-31.5a40.46,40.46,0,0,0-10.86-7.15,58.23,58.23,0,0,0-23.87-5.52Z" style="fill: rgb(224, 99, 119); transform-origin: 294.802px 329.035px;" id="elknofcyk566" class="animable"></path></g></g><g id="el3e8u0bqq50x"><path d="M291.65,380.13c9.38-1.53,31.58-8.11,39.4-27,9.33-22.6,3.4-50.78-4.61-65.91a41.89,41.89,0,0,1,4.14,3.3c8.63,8,13.3,19.28,14.88,31.5a64.13,64.13,0,0,1-2.16,26.81c-3.73,12.2-15.59,21.5-27,26.1A74.37,74.37,0,0,1,291.65,380.13Z" style="fill: rgb(224, 99, 119); opacity: 0.2; transform-origin: 318.829px 333.675px;" class="animable"></path></g><g id="els77rmdg9me"><path d="M321.16,336.07c0,3.72-4.38,6.73-9.77,6.73s-9.77-3-9.77-6.73,4.37-6.74,9.77-6.74S321.16,332.35,321.16,336.07Z" style="fill: rgb(224, 99, 119); opacity: 0.2; transform-origin: 311.39px 336.065px;" class="animable"></path></g><path d="M265,346.18c.2-.44,1.11-.56,1-.19-1.79,6.57,3.24,10,7.5,11.71,4.82,2,10.32,1.92,15.53.76a28.59,28.59,0,0,0,4.23-1.33c.42-.14.36.35-.06.62a22.18,22.18,0,0,1-8.16,3.06,20.94,20.94,0,0,1-7,.15,22.82,22.82,0,0,1-6.57-1.88,11.54,11.54,0,0,1-6.29-5.8A8.44,8.44,0,0,1,265,346.18Z" style="fill: rgb(38, 50, 56); transform-origin: 278.925px 353.477px;" id="eldy2g86pi3ik" class="animable"></path><path d="M259,354.44a7.74,7.74,0,0,0,.83-.07,5.93,5.93,0,0,0,4.67-3.4.78.78,0,0,1,.16-.28.26.26,0,0,1,.3-.07,1.53,1.53,0,0,1,.42.65,2.36,2.36,0,0,1,0,1.12,3.57,3.57,0,0,1-1.23,1.58,6.24,6.24,0,0,1-1.67,1.11,7.23,7.23,0,0,1-6.58-.57c-.17-.11-.36-.32-.23-.47A11.58,11.58,0,0,0,259,354.44Z" style="fill: rgb(38, 50, 56); transform-origin: 260.537px 353.108px;" id="elay982pr3lsv" class="animable"></path><path d="M265.81,344.43c3.77-1.79,8.63-2.44,8-.89-1,2.22-8.51,3.45-8.51,3.45s-5.6-3.94-5.2-6.48C260.31,339,265.81,344.43,265.81,344.43Z" style="fill: rgb(224, 99, 119); transform-origin: 266.973px 343.617px;" id="elwr6w7nfb18e" class="animable"></path><path d="M305.66,327.14c-3.54-2.12-8.29-1.42-11.6,1.09a10.1,10.1,0,0,0-3.73,5.13c-.22.85-.51,1.89.66,1.74a6.52,6.52,0,0,0,2.58-1.46,15,15,0,0,1,10.3-2.54c.9.11,4.67,1.13,4.44-.45A5.17,5.17,0,0,0,305.66,327.14Z" style="fill: rgb(38, 50, 56); transform-origin: 299.225px 330.5px;" id="elcwtatwq66kr" class="animable"></path><path d="M251.29,318.52a3.08,3.08,0,0,1,1.62-1.46c.74-.26,1.37.22,2,.61a11.64,11.64,0,0,1,3.45,3.29,10.14,10.14,0,0,1,1.91,6.05c-.05.87-.11,2-1.18,1.44a6.45,6.45,0,0,1-2-2.2,15.18,15.18,0,0,0-3.44-3.3c-1.15-.8-2.87-1-2.84-2.7A3.93,3.93,0,0,1,251.29,318.52Z" style="fill: rgb(38, 50, 56); transform-origin: 255.54px 322.793px;" id="el9odam515f2g" class="animable"></path><path d="M357.85,230.71c2.54-9.74,9.22-18.23,4.16-22.75s-14.08-1.17-24.55,9.37c-15.93,16-18.32,30.06-22.67,42.26-3.66,10.25-2.36,21.51-5.85,21.39-.46,10.62,8.8,18.17,21.66,15.88,0,0,0-.11-.05-.15-1.65-7.76,2.95-9.82,8.54-13.93,5.82-4.29,11.17-8.32,14.34-14.93a28.72,28.72,0,0,0,2.34-7.15C358.3,247.61,356.12,237.47,357.85,230.71Z" style="fill: rgb(250, 250, 250); transform-origin: 336.389px 251.634px;" id="elxp4i8wsvck" class="animable"></path><g id="elyhgc53yrya"><g style="opacity: 0.2; transform-origin: 336.613px 251.233px;" class="animable"><path d="M330.6,296.86l-.05-.15h0a10.62,10.62,0,0,1,.22-6.19,8.18,8.18,0,0,1,1.68-2.65,17.36,17.36,0,0,1,2.34-2.11c3.35-2.5,6.78-4.89,9.95-7.61a31.86,31.86,0,0,0,8-9.46,26.67,26.67,0,0,0,2.25-5.77,30.94,30.94,0,0,0,.64-3c.19-1,.35-2.05.48-3.09a94.14,94.14,0,0,0,.67-12.46c0-2.09,0-4.18,0-6.28a37.38,37.38,0,0,1,.51-6.31c.87-4.17,2.63-8,4.17-11.88a31.61,31.61,0,0,0,1.87-5.88,8.25,8.25,0,0,0,0-3,4.84,4.84,0,0,0-1.35-2.5,7.43,7.43,0,0,0-5.39-2.08,14.58,14.58,0,0,0-5.88,1.47,41,41,0,0,0-10.16,7,74.74,74.74,0,0,0-20.78,30.71c-1.46,3.9-2.68,7.9-4,11.86-.71,2-1.43,3.93-1.94,5.95s-.91,4.07-1.24,6.13l-.94,6.2a21.45,21.45,0,0,1-.68,3.06,5,5,0,0,1-.66,1.42,1.6,1.6,0,0,1-1.33.72,1.61,1.61,0,0,0,1.31-.73,5.31,5.31,0,0,0,.63-1.42,21.43,21.43,0,0,0,.63-3.07l.83-6.21c.3-2.07.66-4.14,1.15-6.18s1.18-4,1.84-6c1.31-4,2.5-8,3.92-11.92A78.49,78.49,0,0,1,324.37,234,77.07,77.07,0,0,1,340,214.36a41.84,41.84,0,0,1,10.35-7.2,15.22,15.22,0,0,1,6.2-1.55,8.25,8.25,0,0,1,6,2.3,5.71,5.71,0,0,1,1.57,2.94,9,9,0,0,1-.05,3.27,32.47,32.47,0,0,1-1.93,6c-1.56,3.88-3.32,7.7-4.17,11.73a36.18,36.18,0,0,0-.51,6.17c0,2.09,0,4.18,0,6.27a87.92,87.92,0,0,1-.76,12.55c-.14,1-.31,2.08-.51,3.11s-.41,2.07-.68,3.08a27.38,27.38,0,0,1-2.35,5.87,32.25,32.25,0,0,1-8.17,9.53c-3.23,2.67-6.7,5-10.09,7.46a17.53,17.53,0,0,0-2.34,2.05,8.13,8.13,0,0,0-1.71,2.58,10.64,10.64,0,0,0-.31,6.15Z" style="fill: rgb(224, 99, 119); transform-origin: 336.613px 251.233px;" id="elc107ljylcrh" class="animable"></path></g></g><path d="M346.75,261V261a20.78,20.78,0,0,1-1.89,6.58c-3.9,8-11.67,8.61-16.29,11.24s-5.44,12.36-8.69,10.88c-2.83-1.27-2.53-6.55-1.26-13.13,2.17-11.4,7.31-23.47,13.44-34a52.29,52.29,0,0,1,3-4.6c5.37-7.4,11-10.74,13.05-7.8,2.21,3.1-1,5.89-1.54,13.21C346.14,248.77,347.5,254.91,346.75,261Z" style="fill: rgb(224, 99, 119); transform-origin: 333.284px 259.48px;" id="elldngv6sbqv" class="animable"></path><g id="elofi29n4jt4m"><path d="M346.75,261V261a20.78,20.78,0,0,1-1.89,6.58c-3.9,8-11.67,8.61-16.29,11.24s-5.44,12.36-8.69,10.88c-2.83-1.27-2.53-6.55-1.26-13.13,2.17-11.4,7.31-23.47,13.44-34a52.29,52.29,0,0,1,3-4.6c5.37-7.4,11-10.74,13.05-7.8,2.21,3.1-1,5.89-1.54,13.21C346.14,248.77,347.5,254.91,346.75,261Z" style="fill: rgb(255, 255, 255); opacity: 0.4; transform-origin: 333.284px 259.48px;" class="animable"></path></g><g id="el1uvazm6w359"><path d="M353.43,267.85c-3.17,6.61-8.52,10.64-14.34,14.93-5.59,4.11-10.19,6.17-8.54,13.93-1.75-5.51-6-12.48,2.33-15.35S347.61,275.83,353.43,267.85Z" style="fill: rgb(224, 99, 119); opacity: 0.2; transform-origin: 340.666px 282.28px;" class="animable"></path></g><g id="eld1fs6sapl1j"><path d="M346.75,261a20.78,20.78,0,0,1-1.89,6.58c-3.9,8-11.67,8.61-16.29,11.24s-5.44,12.36-8.69,10.88c-2.83-1.27-2.53-6.55-1.26-13.13,2.17-11.4,7.31-23.47,13.44-34a52.29,52.29,0,0,1,3-4.6v0c-5.35,8.75-12.25,28-8.42,31.48S343.61,271.84,346.75,261Z" style="fill: rgb(224, 99, 119); opacity: 0.3; transform-origin: 332.22px 263.911px;" class="animable"></path></g></g></g><g id="freepik--rabbit-1--inject-131" class="animable" style="transform-origin: 135.688px 212.712px;"><g id="freepik--rabbit--inject-131" class="animable" style="transform-origin: 135.688px 212.712px;"><path d="M88.59,257.21a10.38,10.38,0,0,0-15.46-11.73c-2.34-6.16-9.42-13.2-16.43-13.31A22.39,22.39,0,0,1,57,245.36a7.78,7.78,0,0,0-4.66-3.2c.1,3.08-1.54,6-3.53,8.32s-4.38,4.38-6.21,6.86A19.93,19.93,0,0,0,39.4,264c-1,3.81-.52,8.51,2.73,10.75-2.7,3.18-4.48,8.12-3.41,12.15.9,3.38,5.43,8.71,9.52,8.19.34,2.71.71,4.89,2.43,7.18,3.16,4.22,8.6,6.82,13.81,6a12.28,12.28,0,0,0,7.15-4c.43-.5,4.21-7.58,2.39-7.5a11.34,11.34,0,0,0,9.63-6.6,10.66,10.66,0,0,0-.41-9.47,10.5,10.5,0,0,0,3.1-19.25A10.08,10.08,0,0,0,88.59,257.21Z" style="fill: rgb(224, 99, 119); transform-origin: 64.9223px 270.295px;" id="eleum8icih5q5" class="animable"></path><g id="el1mc249zozwe"><g style="opacity: 0.8; transform-origin: 64.9223px 270.295px;" class="animable"><path d="M88.59,257.21a10.38,10.38,0,0,0-15.46-11.73c-2.34-6.16-9.42-13.2-16.43-13.31A22.39,22.39,0,0,1,57,245.36a7.78,7.78,0,0,0-4.66-3.2c.1,3.08-1.54,6-3.53,8.32s-4.38,4.38-6.21,6.86A19.93,19.93,0,0,0,39.4,264c-1,3.81-.52,8.51,2.73,10.75-2.7,3.18-4.48,8.12-3.41,12.15.9,3.38,5.43,8.71,9.52,8.19.34,2.71.71,4.89,2.43,7.18,3.16,4.22,8.6,6.82,13.81,6a12.28,12.28,0,0,0,7.15-4c.43-.5,4.21-7.58,2.39-7.5a11.34,11.34,0,0,0,9.63-6.6,10.66,10.66,0,0,0-.41-9.47,10.5,10.5,0,0,0,3.1-19.25A10.08,10.08,0,0,0,88.59,257.21Z" style="fill: rgb(255, 255, 255); transform-origin: 64.9223px 270.295px;" id="elrlut9zg4pr8" class="animable"></path></g></g><g id="el577atn3k2a2"><path d="M62.29,293.1a5.88,5.88,0,0,1-7.56-6.71,5.9,5.9,0,0,1-9.31-4.94c.06-2.51,1.67-4.68,3.21-6.65-3-1.13-5.86-2.74-7.7-5.31a9,9,0,0,1-1.68-4.88c-.79,3.69-.19,8,2.88,10.12-2.7,3.18-4.48,8.12-3.41,12.15.9,3.38,5.43,8.71,9.52,8.19.34,2.71.71,4.89,2.43,7.18,3.16,4.22,8.6,6.82,13.81,6a12.28,12.28,0,0,0,7.15-4c.43-.5,4.21-7.58,2.39-7.5a11.34,11.34,0,0,0,9.63-6.6,10.66,10.66,0,0,0-.41-9.47,10.5,10.5,0,0,0,3.1-19.25,10.08,10.08,0,0,0,2.25-4.21,11.43,11.43,0,0,0,.35-2.54,57,57,0,0,0-14.31,10C67,272.06,61.83,282.45,62.29,293.1Z" style="fill: rgb(224, 99, 119); opacity: 0.15; transform-origin: 64.9223px 281.54px;" class="animable"></path></g><path d="M138.33,282.83c2.48,6.72,4.85,13.54,8.35,19.81,3.13,5.6,8.79,10.13,9.85,16.61.47,2.86.55,5.82,1.59,8.53,2.25,5.79,8.31,9,14,11.53a224.75,224.75,0,0,0,24.25,9,51,51,0,0,0,12.53,2.59,29,29,0,0,0,8.09-.81c7.82-1.94,11.6-9.71,6.55-16.58a30.76,30.76,0,0,0-9.48-8,57,57,0,0,0-5.93-3c-.78-.35-4.74-2.3-5.48-1.83a42,42,0,0,0,16-18.6,14.44,14.44,0,0,0,1.53-7.23,19.59,19.59,0,0,1,3.39,6.26c.11-.31.22-.62.32-.93a48.59,48.59,0,0,0-.9-32.3c-3.79-9.82-12.46-17.91-21.5-23-7.54-4.25-16.33-5.82-25-6.14a50.22,50.22,0,0,0-13.68,1.07,48.13,48.13,0,0,0-12,5c-5,2.82-9.87,6.37-12.54,11.45C134,264.37,135.3,274.61,138.33,282.83Z" style="fill: rgb(255, 255, 255); transform-origin: 180.881px 294.788px;" id="elsga698h65sq" class="animable"></path><g id="eltxci18ykrkq"><path d="M138.33,282.83c2.48,6.72,4.85,13.54,8.35,19.81,3.13,5.6,8.79,10.13,9.85,16.61.47,2.86.55,5.82,1.59,8.53,2.25,5.79,8.31,9,14,11.53a224.75,224.75,0,0,0,24.25,9,51,51,0,0,0,12.53,2.59,29,29,0,0,0,8.09-.81c7.82-1.94,11.6-9.71,6.55-16.58a30.76,30.76,0,0,0-9.48-8,57,57,0,0,0-5.93-3c-.78-.35-4.74-2.3-5.48-1.83a42,42,0,0,0,16-18.6,14.44,14.44,0,0,0,1.53-7.23,19.59,19.59,0,0,1,3.39,6.26c.11-.31.22-.62.32-.93a48.59,48.59,0,0,0-.9-32.3c-3.79-9.82-12.46-17.91-21.5-23-7.54-4.25-16.33-5.82-25-6.14a50.22,50.22,0,0,0-13.68,1.07,48.13,48.13,0,0,0-12,5c-5,2.82-9.87,6.37-12.54,11.45C134,264.37,135.3,274.61,138.33,282.83Z" style="fill: rgb(224, 99, 119); opacity: 0.15; transform-origin: 180.881px 294.788px;" class="animable"></path></g><path d="M182,250.92c-4.48-4.36-10.05-9.68-9.87-16.46.18-7,.22-14.31-1.17-21.2-1.18-5.88-1.58-11.25-6.72-15.08s-12.25-5.5-18.49-6.46c-6.52-1-13.27,1.85-18.19,6-6.14,5.17-10.24,12.28-14.75,18.92-7.08,10.45-15.39,20-23.07,30S74.88,267.3,70.53,279.15c-5.43,14.81-5.31,31.77,1.64,46.07a50.88,50.88,0,0,0,9.51,13.48c-3.78,9.09.11,17.19,6.21,21.53,9.18,6.53,15.78,9,22.64,12.34,7,3.39,15.8,6.68,22.13,7.61,10.71,1.57,15.49,1.62,22.33-2.83,3-2,5.15-4.93,4.52-9.54a7.85,7.85,0,0,0-3.12-5.55c6.8.75,17.86-2.59,31-12.47,16.42-12.38,25.08-34.65,23-55.1a51.7,51.7,0,0,0-9.66-25.25,45.37,45.37,0,0,0-9.52-9.6C187.75,257.32,185,253.92,182,250.92Z" style="fill: rgb(255, 255, 255); transform-origin: 138.689px 286.334px;" id="elz89g8eoi5n" class="animable"></path><g id="elfa20onlxkte"><path d="M182,250.92c-4.48-4.36-10.05-9.68-9.87-16.46.18-7,.22-14.31-1.17-21.2-1.18-5.88-1.58-11.25-6.72-15.08s-12.25-5.5-18.49-6.46c-6.52-1-13.27,1.85-18.19,6-6.14,5.17-10.24,12.28-14.75,18.92-7.08,10.45-15.39,20-23.07,30S74.88,267.3,70.53,279.15c-5.43,14.81-5.31,31.77,1.64,46.07a50.88,50.88,0,0,0,9.51,13.48c-3.78,9.09.11,17.19,6.21,21.53,9.18,6.53,15.78,9,22.64,12.34,7,3.39,15.8,6.68,22.13,7.61,10.71,1.57,15.49,1.62,22.33-2.83,3-2,5.15-4.93,4.52-9.54a7.85,7.85,0,0,0-3.12-5.55c6.8.75,17.86-2.59,31-12.47,16.42-12.38,25.08-34.65,23-55.1a51.7,51.7,0,0,0-9.66-25.25,45.37,45.37,0,0,0-9.52-9.6C187.75,257.32,185,253.92,182,250.92Z" style="fill: rgb(224, 99, 119); opacity: 0.05; transform-origin: 138.689px 286.334px;" class="animable"></path></g><g id="elzre2wbhfff"><path d="M156.39,362.26l1,.95A10.4,10.4,0,0,0,156.39,362.26Z" style="fill: rgb(224, 99, 119); opacity: 0.2; transform-origin: 156.89px 362.735px;" class="animable"></path></g><g id="el0o6duw1lgajo"><path d="M146.08,351.11c-2.37-1.86-8.51-6.95-9.17-8.36,9-7.16,10.34-15,10-23.06-.46-10.3-5.81-15.77-6.43-12.87-1.74,8.13-2.44,5.78-2.93,2.45-1.72-11.47-9.75-24.12-17.07-24.92,11,4.62,14.38,27.54,14.39,33s3.18.82,4.28.48c1.94-.6,3.24,15.73-8.38,23-11.21,7-22.78,7.43-31,3.16,2.49,4.47,20.84,8.19,33.07,1.47,4.9,3.48,10.87,7,12.93,8.47,7.29,5.34,8.23,6,10.63,8.33.47.06,1,.08,1.47.1A80.87,80.87,0,0,0,146.08,351.11Z" style="fill: rgb(224, 99, 119); opacity: 0.2; transform-origin: 128.82px 323.355px;" class="animable"></path></g><path d="M209.75,262.88c-.44,5.7.86,11.75.5,17.39a49.12,49.12,0,0,1-4.08,16.78c-2,4.62-4.95,9.05-9.23,11.73-1.94,1.21-7.35,2.69-8-.81,1,5.34-4.22,7.07-8.44,7.31-4.64.26-9-2-13.09-4A84.59,84.59,0,0,1,142.81,293c-9.92-10.64-18.33-21.43-22.8-35.59a62.39,62.39,0,0,1-2.65-12.22,67.34,67.34,0,0,1,.48-16.66A96.78,96.78,0,0,1,133,188.58c5.6-8.42,12.69-16.07,21.56-20.93s19.68-6.68,29.28-3.5a34.17,34.17,0,0,1,13.3,8.34c6.88,6.86,8.29,14.92,11.32,23.64,3.18,9.2,8,18.41,10.08,27.91a38.5,38.5,0,0,1-.27,17.89,3.15,3.15,0,0,1-2.09-1.5c1,1.72-1.64,8.24-2.23,10-1,3.14-3.16,6.22-3.83,9.42A24.55,24.55,0,0,0,209.75,262.88Z" style="fill: rgb(250, 250, 250); transform-origin: 168.259px 238.932px;" id="elgcgradjjzno" class="animable"></path><g id="eluh7b57017uj"><g style="opacity: 0.2; transform-origin: 168.27px 238.92px;" class="animable"><path d="M173.78,163.54a31,31,0,0,1,9.79,1.53,33.28,33.28,0,0,1,12.92,8.11c5.38,5.36,7.36,11.63,9.45,18.26.52,1.63,1.05,3.31,1.64,5,1.16,3.37,2.57,6.8,3.92,10.11,2.36,5.77,4.8,11.73,6.13,17.69a37.64,37.64,0,0,1,0,16.33,1.94,1.94,0,0,1-.57-.64l-.85.49-.84.48c.4.71-.24,3.43-1.91,8.08-.17.49-.32.9-.41,1.19a33.36,33.36,0,0,1-1.67,3.88,25.5,25.5,0,0,0-2.18,5.64,24.13,24.13,0,0,0-.43,3.1,60.25,60.25,0,0,0,.24,9.11,61,61,0,0,1,.26,8.3,48.13,48.13,0,0,1-4,16.45c-2.35,5.28-5.32,9.08-8.85,11.29a9.36,9.36,0,0,1-4.32,1.23c-1.94,0-2.12-1-2.2-1.38A1,1,0,0,0,189,307h-.18a1,1,0,0,0-.78,1.15,4.17,4.17,0,0,1-.71,3.53c-1.15,1.47-3.64,2.42-6.82,2.61l-.69,0c-3.87,0-7.59-1.84-11.19-3.61l-.73-.35a83.17,83.17,0,0,1-24.34-18c-9-9.66-18-20.62-22.58-35.22a61.9,61.9,0,0,1-2.62-12,66.43,66.43,0,0,1,.48-16.43,96.1,96.1,0,0,1,15-39.53c6.25-9.39,13.38-16.33,21.21-20.61a39.26,39.26,0,0,1,18.72-5m0-1a40.47,40.47,0,0,0-19.18,5.08c-8.87,4.86-16,12.51-21.56,20.93a96.78,96.78,0,0,0-15.2,39.94,67.34,67.34,0,0,0-.48,16.66A62.39,62.39,0,0,0,120,257.4c4.47,14.16,12.88,25,22.8,35.59a84.59,84.59,0,0,0,24.62,18.25c3.91,1.91,8,4.06,12.35,4.06l.74,0c4.22-.24,9.42-2,8.44-7.29v0c.3,1.61,1.63,2.16,3.15,2.16a10.32,10.32,0,0,0,4.83-1.37c4.28-2.68,7.18-7.11,9.23-11.73a49.12,49.12,0,0,0,4.08-16.78c.36-5.64-.94-11.69-.5-17.39a24.55,24.55,0,0,1,.41-3c.67-3.2,2.8-6.28,3.83-9.42.59-1.81,3.22-8.33,2.23-10a3.15,3.15,0,0,0,2.09,1.5,38.63,38.63,0,0,0,.28-17.89c-2.13-9.5-6.91-18.71-10.09-27.91-3-8.72-4.44-16.78-11.32-23.64a34.17,34.17,0,0,0-13.3-8.34,32.11,32.11,0,0,0-10.1-1.58Z" style="fill: rgb(224, 99, 119); transform-origin: 168.27px 238.92px;" id="elwuhjq9d4g" class="animable"></path></g></g><g id="ela8iqklge9vw"><path d="M167.25,277.33c-10.59-8.07-12.8-11-16.09-21.19,6.2,15,27.6,25.05,35.93,19a9,9,0,0,0,3.23-8.37c.55.06,2.38,2.29,2,4.51,6.76-4,11.19-14.48,13.12-22.74-.39,11.73-3.46,17.23-12.36,28.87-4.72,6.18-5.55,17.85-4.6,30.48-1.59-6.81-1.13-8-3.9-14.65C182.41,288.13,178.55,285.94,167.25,277.33Z" style="fill: rgb(224, 99, 119); opacity: 0.2; transform-origin: 178.3px 278.215px;" class="animable"></path></g><path d="M191.18,126.7c.66-2.17,2.78-3.67,5.41-5.53a37.9,37.9,0,0,0,6.16-5.09c.31-.34.57-.64.83-.94s.34-.39.48-.57a1,1,0,0,1,.13-.18,43.75,43.75,0,0,0,6.7-12.29l.31-.95.45.89a25,25,0,0,0,2.55,3.62c1.81,2.32,3.69,4.71,3.69,6.5,0,3.36,1.12,5.35,3.15,5.59h0c2.58.31,6-2.16,7.59-5.51,4.68-9.74,5-26.94,1.8-32.18a9.23,9.23,0,0,0-2.1-2.5,10.4,10.4,0,0,0-4.14-1.85,15.55,15.55,0,0,1-6.11-2.87,33.58,33.58,0,0,1-2.92-2.69,29.24,29.24,0,0,0-3.41-3,8.23,8.23,0,0,0-3.86-1.62c-2.53-.31-5.41.76-8.79,3.26a37.71,37.71,0,0,0-9,9.79l0,.08A74.44,74.44,0,0,0,179.78,106c-1.47,8.93-2.82,11.92-3.89,12.82Z" style="fill: rgb(250, 250, 250); transform-origin: 204.214px 96.0889px;" id="el9jgrtwrqr08" class="animable"></path><g id="elgi2ph3y8877"><path d="M207.84,65.91a7.74,7.74,0,0,1,3.67,1.54,27.57,27.57,0,0,1,3.36,3,33.12,33.12,0,0,0,3,2.72,16,16,0,0,0,6.25,3,10.19,10.19,0,0,1,4,1.76,9.14,9.14,0,0,1,2,2.4c3.13,5.16,2.8,22.15-1.82,31.79-1.52,3.15-4.8,5.57-7.18,5.28s-2.79-3.37-2.79-5.18-1.92-4.38-3.78-6.75a26.5,26.5,0,0,1-2.51-3.55l-.89-1.78L210.5,102a43.2,43.2,0,0,1-6.63,12.17,2.07,2.07,0,0,0-.15.2c-.14.18-.3.36-.44.52l-.83,1a38.22,38.22,0,0,1-6.1,5c-2.42,1.7-4.55,3.21-5.4,5.29l-14.36-7.41c1.11-1.38,2.3-4.8,3.59-12.66,1.62-9.73,5.45-19.91,10.25-27.21l.06-.11a37.5,37.5,0,0,1,8.85-9.65c3.3-2.43,6.08-3.48,8.5-3.18h0m.1-.82c-2.39-.28-5.29.54-9.09,3.34a38.39,38.39,0,0,0-9.06,9.89l0,.08C184,87.15,180.69,98,179.38,105.93c-1.45,8.79-3,13-4.46,12.82h-.08l16.61,8.57c.73-4,6.74-5.73,11.6-11l.84-1c.18-.21.35-.4.49-.59a1.26,1.26,0,0,1,.13-.17,43.86,43.86,0,0,0,6.77-12.42c1.39,2.74,6.19,7.28,6.2,9.93,0,4,1.53,5.76,3.51,6,2.73.32,6.31-2.2,8-5.74,4.59-9.56,5.25-26.87,1.78-32.58a9.68,9.68,0,0,0-2.19-2.6c-2.89-2.37-6.14-1.46-10.26-4.72-2.19-1.72-4.08-4.13-6.34-5.74a8.84,8.84,0,0,0-4.05-1.69Z" style="fill: rgb(224, 99, 119); opacity: 0.2; transform-origin: 203.906px 96.16px;" class="animable"></path></g><g id="el1y74gfrutut"><path d="M174.84,118.74l16.61,8.57c.73-4,6.74-5.73,11.6-11l.84-1c-2.75,2.8-10.23,5.47-13.5,5.08-3.5-.43-5.22-7.31-5.65-15s1.39-20.58,5-27C184,87.15,180.69,98,179.38,105.93,177.9,114.88,176.36,119.08,174.84,118.74Z" style="fill: rgb(224, 99, 119); opacity: 0.2; transform-origin: 189.365px 102.85px;" class="animable"></path></g><path d="M181.19,121.92l6.61,3.52a86.06,86.06,0,0,0,8.52-11.9c1.15-1.93,2.22-3.93,3.39-6.19a27.87,27.87,0,0,1,8.94-10.06,82.37,82.37,0,0,1-2.92-8.92c-5.19,3-15.9,7.84-18.1,16.51S183.36,118.18,181.19,121.92Z" style="fill: rgb(224, 99, 119); transform-origin: 194.92px 106.905px;" id="elhfrd7v3fdzf" class="animable"></path><g id="elvhfv49n60ve"><path d="M181.19,121.92l6.61,3.52a86.06,86.06,0,0,0,8.52-11.9c1.15-1.93,2.22-3.93,3.39-6.19a27.87,27.87,0,0,1,8.94-10.06,82.37,82.37,0,0,1-2.92-8.92c-5.19,3-15.9,7.84-18.1,16.51S183.36,118.18,181.19,121.92Z" style="fill: rgb(255, 255, 255); opacity: 0.4; transform-origin: 194.92px 106.905px;" class="animable"></path></g><g id="elfr9vrltcnfc"><path d="M181.19,121.92l6.61,3.52a86.06,86.06,0,0,0,8.52-11.9c-1.38,1.58-3.62,3.63-5.43,2.81-2.85-1.29-1.68-7.34.86-14s10.87-11.07,14-14c-5.19,3-15.9,7.84-18.1,16.51S183.36,118.18,181.19,121.92Z" style="fill: rgb(224, 99, 119); opacity: 0.3; transform-origin: 193.47px 106.895px;" class="animable"></path></g><g id="elcs7gaenzz5f"><path d="M211.28,102.23a41.88,41.88,0,0,1-5.22-12.87c-1.74-6.65-8.56-7.52-11.16-6a7.94,7.94,0,0,1,7.54,6.8c1,6.06.87,12.92,6.61,17.27Z" style="opacity: 0.3; transform-origin: 203.09px 95.0741px;" class="animable"></path></g><g id="elokvoyhjtbks"><path d="M212,66.78c2.18,2.18,3.6,7.53,8.12,9.43,5.38,2.25,6.3-.22,8.48,1-2.89-2.37-6.14-1.46-10.26-4.72C216.14,70.8,214.25,68.39,212,66.78Z" style="fill: rgb(224, 99, 119); opacity: 0.2; transform-origin: 220.3px 71.995px;" class="animable"></path></g><path d="M131.19,132.21a39.71,39.71,0,0,1,9.78-7.92c7.75-4.46,16.46-7.46,25.39-7.76s18.1,2.26,25,7.88a42.25,42.25,0,0,1,6.73,7c6.34,8.17,8.81,17.86,13.83,26.67,4.44,7.79,8.66,14.21,8.55,23.64-.09,7-3.47,17.64-15.82,25.26-11.24,7-31.52,11.08-51.76,5.15-11.44-3.35-23.74-11.18-28.49-22.58A62.08,62.08,0,0,1,119.84,164C120.2,152,123.63,140.7,131.19,132.21Z" style="fill: rgb(250, 250, 250); transform-origin: 170.138px 165.746px;" id="eloeabaaqzkg" class="animable"></path><g id="elwfc9baogkam"><g style="opacity: 0.2; transform-origin: 170.184px 165.755px;" class="animable"><path d="M167.76,117.48h0a36.59,36.59,0,0,1,23,7.69,40.63,40.63,0,0,1,6.57,6.87c3.78,4.86,6.11,10.18,8.58,15.81a113.49,113.49,0,0,0,5.17,10.75l1.15,2c4,6.86,7.38,12.79,7.27,21.14,0,4.53-1.66,16-15.35,24.44C196.24,211.1,184.57,214,173,214a70.3,70.3,0,0,1-19.75-2.8c-10.29-3-23-10.38-27.86-22A61.22,61.22,0,0,1,120.82,164c.38-12.64,4.22-23.4,11.1-31.13a38.32,38.32,0,0,1,9.54-7.72,54.19,54.19,0,0,1,24.94-7.64l1.36,0m0-1-1.4,0c-8.93.3-17.64,3.3-25.39,7.76a39.71,39.71,0,0,0-9.78,7.92c-7.56,8.49-11,19.83-11.35,31.75a62.08,62.08,0,0,0,4.61,25.62c4.75,11.4,17,19.23,28.49,22.58A71.16,71.16,0,0,0,173,215c12.8,0,24.27-3.37,31.74-8,12.35-7.62,15.73-18.22,15.82-25.26.11-9.43-4.11-15.85-8.55-23.64-5-8.81-7.49-18.5-13.83-26.67a42.25,42.25,0,0,0-6.73-7,37.71,37.71,0,0,0-23.65-7.9Z" style="fill: rgb(224, 99, 119); transform-origin: 170.184px 165.755px;" id="el4go1pvmo5qx" class="animable"></path></g></g><g id="elpqq42y2qmqn"><path d="M177.16,214.88c-9.17-.58-31.17-4.82-40.5-22.32-11.13-20.88-8.08-48.59-1.79-63.91a38.75,38.75,0,0,0-3.68,3.56c-7.56,8.49-11,19.83-11.35,31.75a62.08,62.08,0,0,0,4.61,25.62c4.75,11.4,17,19.23,28.49,22.58A71.92,71.92,0,0,0,177.16,214.88Z" style="fill: rgb(224, 99, 119); opacity: 0.2; transform-origin: 148.483px 171.826px;" class="animable"></path></g><path d="M201.78,181.26c-.24-.39-1.13-.43-1-.08,2.34,6.16-2.18,9.91-6.12,12-4.45,2.36-9.75,2.84-14.89,2.21a27.86,27.86,0,0,1-4.2-.88c-.41-.1-.31.37.12.59a21.5,21.5,0,0,0,8.15,2.18,20.11,20.11,0,0,0,6.78-.53,22.16,22.16,0,0,0,6.15-2.43,11.15,11.15,0,0,0,5.51-6.18A8.2,8.2,0,0,0,201.78,181.26Z" style="fill: rgb(38, 50, 56); transform-origin: 189.06px 189.153px;" id="eluomy63kkwws" class="animable"></path><path d="M208.43,188.65a7.3,7.3,0,0,1-.81,0,5.71,5.71,0,0,1-4.82-2.82.81.81,0,0,0-.18-.26.24.24,0,0,0-.29,0,1.44,1.44,0,0,0-.35.67,2.35,2.35,0,0,0,.13,1.08,3.44,3.44,0,0,0,1.34,1.39,5.6,5.6,0,0,0,1.72.92,7,7,0,0,0,6.28-1.17c.15-.12.31-.34.18-.48A11.41,11.41,0,0,1,208.43,188.65Z" style="fill: rgb(38, 50, 56); transform-origin: 206.821px 187.721px;" id="elxlysjl58k5n" class="animable"></path><path d="M200.87,179.65c-3.8-1.36-8.54-1.53-7.75-.1,1.13,2,8.52,2.52,8.52,2.52s5-4.32,4.4-6.73C205.66,173.88,200.87,179.65,200.87,179.65Z" style="fill: rgb(224, 99, 119); transform-origin: 199.561px 178.587px;" id="el6hh2wb4htdo" class="animable"></path><path d="M170.21,167.2a6.92,6.92,0,0,1-6.92,6.92,6.82,6.82,0,0,1-4.06-1.32l0,0a6.92,6.92,0,0,1,4.08-12.49,6.78,6.78,0,0,1,3.47.94A6.9,6.9,0,0,1,170.21,167.2Z" style="fill: rgb(38, 50, 56); transform-origin: 163.313px 167.215px;" id="eljciwsckojo" class="animable"></path><path d="M166.76,161.22c-.16.31-.61.11-.9.08a5.34,5.34,0,0,0-2.86.5,3.53,3.53,0,0,0-1.26,1c-.53.71-1,2,.39,1.77a3.34,3.34,0,0,1,2,.21,1.45,1.45,0,0,1,1,1.32c-.08.59-.68.94-1.25,1.09a5.63,5.63,0,0,1-4-.87,4.45,4.45,0,0,0-1.24,2.73,5.78,5.78,0,0,0,.63,3.75,6.92,6.92,0,0,1,4.08-12.49A6.78,6.78,0,0,1,166.76,161.22Z" style="fill: rgb(250, 250, 250); transform-origin: 161.608px 166.555px;" id="el4fn73m7anvf" class="animable"></path><path d="M171.34,165.54c-1.56-5.1-7.15-7-12-6.15a5.56,5.56,0,0,0-3.53,1.73,5.43,5.43,0,0,0-.94,3.55c.08,3.13,1.78,7.77,5.66,8.87a8.16,8.16,0,0,1-3.22-6.16,9.41,9.41,0,0,1,.26-3.47c.93-2.93,3.85-3.22,6.52-3a7.49,7.49,0,0,1,5.23,3.31,15.94,15.94,0,0,1,1.72,4c.15.51.55.42.59-.08A6.92,6.92,0,0,0,171.34,165.54Z" style="fill: rgb(38, 50, 56); transform-origin: 163.251px 166.367px;" id="elgsnttsjyr8t" class="animable"></path><path d="M211.83,158.4l0,.38a6,6,0,0,1-1.24,4.09,1.12,1.12,0,0,1-1.58.37,5.12,5.12,0,0,1-1.87-1.29s0,0,0,0a6.88,6.88,0,0,1-1.65-5.43,7.53,7.53,0,0,1,.77-2.59c.23-.45.88-1.82,1.34-1.87a1.08,1.08,0,0,1,.71.25A8.28,8.28,0,0,1,211.83,158.4Z" style="fill: rgb(38, 50, 56); transform-origin: 208.638px 157.742px;" id="elcr6xgcd2059" class="animable"></path><path d="M210.91,162.5a6.29,6.29,0,0,0,1-3.72l0-.38a8.28,8.28,0,0,0-3.5-6.12,1.08,1.08,0,0,0-.71-.25c-.24,0-.54.42-.8.85a9.39,9.39,0,0,1,1.59,1.14,5.13,5.13,0,0,1,1.21,1.5,2,2,0,0,0-.75.44,3.71,3.71,0,0,0-.75.73,2.65,2.65,0,0,0-.41,1.22A1.33,1.33,0,0,0,208,159a1,1,0,0,0,.45.24,1.66,1.66,0,0,0,1.4-.25,2.11,2.11,0,0,0,.83-1.18,8,8,0,0,1,.33,2.33c0,.38,0,.76,0,1.13,0,.22,0,.43,0,.64A1.68,1.68,0,0,1,210.91,162.5Z" style="fill: rgb(250, 250, 250); transform-origin: 209.409px 157.265px;" id="elfx0hnv4tb4u" class="animable"></path><path d="M206,161.41a5.72,5.72,0,0,0,3.32,1.94,8.33,8.33,0,0,1-2.61-3.77,10.38,10.38,0,0,1,0-3.69,8.71,8.71,0,0,1,1.4-3.12c.23-.32.47-.72.32-1.08a.77.77,0,0,0-.66-.44c-1.34-.14-2.32,1.94-2.66,3a10.25,10.25,0,0,0-.39,3.74A6.25,6.25,0,0,0,206,161.41Z" style="fill: rgb(38, 50, 56); transform-origin: 207.003px 157.297px;" id="elyoqq92hgq8" class="animable"></path><path d="M111.1,68.42c-1.77-9.57-7.64-18.23-2.45-22.24S122.33,46,131.71,56.9c14.28,16.53,15.62,30.28,19,42.36,2.82,10.15.8,20.93,4.17,21-.28,10.29-9.74,16.94-22,13.85a.88.88,0,0,0,0-.15c2.13-7.37-2.16-9.68-7.28-14-5.33-4.54-10.21-8.8-12.82-15.4a27.62,27.62,0,0,1-1.76-7.07C109.51,84.71,112.32,75.07,111.1,68.42Z" style="fill: rgb(250, 250, 250); transform-origin: 130.718px 89.7501px;" id="el7rjitfscvtu" class="animable"></path><g id="elryrzua56fm"><g style="opacity: 0.2; transform-origin: 130.497px 89.2184px;" class="animable"><path d="M132.87,134.16l.06-.15h0a10.36,10.36,0,0,0,.21-6,8,8,0,0,0-1.44-2.67,17.54,17.54,0,0,0-2.11-2.2c-3.07-2.64-6.21-5.19-9.09-8a31.06,31.06,0,0,1-7-9.69,25.45,25.45,0,0,1-1.77-5.72,27.39,27.39,0,0,1-.42-3c-.11-1-.19-2-.24-3a91.91,91.91,0,0,1,.2-12.08c.14-2,.32-4,.44-6.06a35.88,35.88,0,0,0-.05-6.13c-.56-4.09-2-7.92-3.21-11.76A29.9,29.9,0,0,1,107,51.9a8.08,8.08,0,0,1,.17-2.87,4.63,4.63,0,0,1,1.48-2.32A7.14,7.14,0,0,1,114,45.07a14.23,14.23,0,0,1,5.57,1.82,39.75,39.75,0,0,1,9.34,7.49,76.29,76.29,0,0,1,13.73,19.75,75.43,75.43,0,0,1,4.22,11.32c1.14,3.87,2,7.82,3.07,11.73.54,2,1.11,3.89,1.46,5.88s.61,4,.78,6l.48,6a20.11,20.11,0,0,0,.45,3,4.79,4.79,0,0,0,.54,1.42,1.52,1.52,0,0,0,1.23.78,1.51,1.51,0,0,1-1.21-.79,5.16,5.16,0,0,1-.52-1.42,23,23,0,0,1-.4-3l-.37-6c-.14-2-.35-4-.68-6s-.87-4-1.37-5.93c-1-3.92-1.86-7.87-3-11.77a76.21,76.21,0,0,0-4.14-11.44,74.77,74.77,0,0,0-13.77-20,40.05,40.05,0,0,0-9.5-7.67,14.73,14.73,0,0,0-5.87-1.92,8,8,0,0,0-5.95,1.81,5.51,5.51,0,0,0-1.72,2.73,8.89,8.89,0,0,0-.18,3.16,31.25,31.25,0,0,0,1.45,6c1.24,3.85,2.67,7.66,3.22,11.61a35.32,35.32,0,0,1,.07,6c-.12,2-.29,4-.42,6a85.21,85.21,0,0,0-.13,12.17c.06,1,.16,2,.27,3s.26,2,.46,3a26,26,0,0,0,1.86,5.82,31.08,31.08,0,0,0,7.23,9.76c2.93,2.81,6.13,5.31,9.23,7.89a17.94,17.94,0,0,1,2.12,2.15,7.71,7.71,0,0,1,1.47,2.6,10.26,10.26,0,0,1-.13,6Z" style="fill: rgb(224, 99, 119); transform-origin: 130.497px 89.2184px;" id="elqn86sfmuaim" class="animable"></path></g></g><path d="M119.74,98.38v0a20.33,20.33,0,0,0,1.37,6.49c3.22,8,10.68,9.11,15,12s4.4,12.31,7.64,11.1c2.82-1,2.9-6.15,2.12-12.59-1.32-11.15-5.44-23.16-10.65-33.71A50.3,50.3,0,0,0,132.61,77c-4.68-7.51-9.85-11.12-12.07-8.43-2.34,2.84.52,5.76.58,12.86C121.17,86.66,119.44,92.5,119.74,98.38Z" style="fill: rgb(224, 99, 119); transform-origin: 132.957px 97.8802px;" id="ellsf7dzhi8bc" class="animable"></path><g id="elc74ckaogqf"><path d="M119.74,98.38v0a20.33,20.33,0,0,0,1.37,6.49c3.22,8,10.68,9.11,15,12s4.4,12.31,7.64,11.1c2.82-1,2.9-6.15,2.12-12.59-1.32-11.15-5.44-23.16-10.65-33.71A50.3,50.3,0,0,0,132.61,77c-4.68-7.51-9.85-11.12-12.07-8.43-2.34,2.84.52,5.76.58,12.86C121.17,86.66,119.44,92.5,119.74,98.38Z" style="fill: rgb(255, 255, 255); opacity: 0.4; transform-origin: 132.957px 97.8802px;" class="animable"></path></g><g id="elruvcqdyv2r"><path d="M112.82,104.58c2.61,6.6,7.49,10.86,12.82,15.4,5.12,4.35,9.41,6.66,7.28,14,2.07-5.19,6.68-11.63-1.19-15S117.89,112.69,112.82,104.58Z" style="fill: rgb(224, 99, 119); opacity: 0.2; transform-origin: 124.487px 119.28px;" class="animable"></path></g><g id="elmbdjq8sazsf"><path d="M119.74,98.42a20.33,20.33,0,0,0,1.37,6.49c3.22,8,10.68,9.11,15,12s4.4,12.31,7.64,11.1c2.82-1,2.9-6.15,2.12-12.59-1.32-11.15-5.44-23.16-10.65-33.71A50.3,50.3,0,0,0,132.61,77v0c4.56,8.81,9.89,27.88,6,31S122,109.1,119.74,98.42Z" style="fill: rgb(224, 99, 119); opacity: 0.3; transform-origin: 133.017px 102.558px;" class="animable"></path></g></g></g><g id="freepik--Plants--inject-131" class="animable" style="transform-origin: 253.172px 344.694px;"><g id="freepik--grass--inject-131" class="animable" style="transform-origin: 424.909px 343.174px;"><path d="M439.06,337.52a57.09,57.09,0,0,0-3.13,8c-.28.81-.5,1.67-.83,2.46l-23.71,13.68a50.36,50.36,0,0,0-1-19.26,4.69,4.69,0,0,1-.23-1.49,1.36,1.36,0,0,1,.81-1.18,1.4,1.4,0,0,1,.88,0,5.93,5.93,0,0,1,2.59,1.74,26.86,26.86,0,0,1,2.34,2.65,1.9,1.9,0,0,0,1,.8c1.06.24,1.67-3.22,2-4a43.42,43.42,0,0,1,2.24-4.85,40.12,40.12,0,0,1,6.19-8.47,12.57,12.57,0,0,1,3.22-2.38c.45-.23,1.26-.7,1.79-.47,1,.4.1,1.77-.19,2.42a30.5,30.5,0,0,0-3.17,11.72c0,.71-.06,2.24.89,2.39a1.82,1.82,0,0,0,1.35-.57c1.14-.94,2.26-1.91,3.35-2.93C438.09,335.18,440.92,333.9,439.06,337.52Z" style="fill: rgb(224, 99, 119); transform-origin: 424.909px 343.174px;" id="el58tpicebnh4" class="animable"></path><g id="elv04o5qma12"><path d="M439.06,337.52a57.09,57.09,0,0,0-3.13,8c-.28.81-.5,1.67-.83,2.46l-23.71,13.68a50.36,50.36,0,0,0-1-19.26,4.69,4.69,0,0,1-.23-1.49,1.36,1.36,0,0,1,.81-1.18,1.4,1.4,0,0,1,.88,0,5.93,5.93,0,0,1,2.59,1.74,26.86,26.86,0,0,1,2.34,2.65,1.9,1.9,0,0,0,1,.8c1.06.24,1.67-3.22,2-4a43.42,43.42,0,0,1,2.24-4.85,40.12,40.12,0,0,1,6.19-8.47,12.57,12.57,0,0,1,3.22-2.38c.45-.23,1.26-.7,1.79-.47,1,.4.1,1.77-.19,2.42a30.5,30.5,0,0,0-3.17,11.72c0,.71-.06,2.24.89,2.39a1.82,1.82,0,0,0,1.35-.57c1.14-.94,2.26-1.91,3.35-2.93C438.09,335.18,440.92,333.9,439.06,337.52Z" style="fill: rgb(255, 255, 255); opacity: 0.6; transform-origin: 424.909px 343.174px;" class="animable"></path></g><g id="ela4v79vos6mj"><path d="M422.7,355.08c0-.37,0-.74.05-1.12.07-1.37.14-2.74.28-4.1a45.79,45.79,0,0,1,1.39-7.44,46.28,46.28,0,0,1,2.49-6.88c.5-1.1,1-2.18,1.61-3.25s1.08-2.21,1.64-3.3c.07-.15-.13-.58-.3-.38a21.9,21.9,0,0,0-2.31,3.1c-.62,1.08-1.2,2.18-1.73,3.31a47.52,47.52,0,0,0-2.62,7.16,45.92,45.92,0,0,0-1.39,7.36c-.14,1.35-.22,2.71-.28,4.07,0,.72-.07,1.45-.1,2.17v0Z" style="fill: rgb(224, 99, 119); opacity: 0.3; transform-origin: 425.802px 342.169px;" class="animable"></path></g><g id="elpbc7csnj9gh"><path d="M436.08,339.39a32.77,32.77,0,0,0-6.54,11.75l.94-.54a34.72,34.72,0,0,1,5.68-11.05C436.2,339.5,436.15,339.31,436.08,339.39Z" style="fill: rgb(224, 99, 119); opacity: 0.3; transform-origin: 432.857px 345.255px;" class="animable"></path></g><g id="elyu7uj9lhov"><path d="M416.87,358.45c0-.32.05-.64.05-.95a28.26,28.26,0,0,0-.36-4.6,24.23,24.23,0,0,0-3.44-9c-.06-.1-.13.06-.1.13a31.06,31.06,0,0,1,2.65,8.46A26.5,26.5,0,0,1,416,357c0,.69,0,1.38-.11,2.06Z" style="fill: rgb(224, 99, 119); opacity: 0.3; transform-origin: 414.966px 351.464px;" class="animable"></path></g></g><g id="freepik--grass--inject-131" class="animable" style="transform-origin: 81.3183px 346.391px;"><path d="M67.28,340.81a55.6,55.6,0,0,1,3.1,7.88c.28.81.5,1.66.83,2.44L94.73,364.7a49.72,49.72,0,0,1,1-19.1,4.39,4.39,0,0,0,.22-1.48,1.36,1.36,0,0,0-.79-1.18,1.47,1.47,0,0,0-.88,0,5.82,5.82,0,0,0-2.57,1.72,29.07,29.07,0,0,0-2.32,2.63,1.9,1.9,0,0,1-1,.8c-1,.23-1.65-3.19-1.93-3.93a42.77,42.77,0,0,0-2.23-4.81A40.14,40.14,0,0,0,78.14,331,12.31,12.31,0,0,0,75,328.61c-.45-.24-1.26-.69-1.78-.47-1,.39-.1,1.76.19,2.4a30.58,30.58,0,0,1,3.15,11.62c0,.71,0,2.23-.89,2.37a1.83,1.83,0,0,1-1.34-.55c-1.13-1-2.24-1.91-3.32-2.92C68.24,338.49,65.43,337.21,67.28,340.81Z" style="fill: rgb(224, 99, 119); transform-origin: 81.3183px 346.391px;" id="elr7hhn75o6ll" class="animable"></path><g id="elhhky4w9tbo"><path d="M67.28,340.81a55.6,55.6,0,0,1,3.1,7.88c.28.81.5,1.66.83,2.44L94.73,364.7a49.72,49.72,0,0,1,1-19.1,4.39,4.39,0,0,0,.22-1.48,1.36,1.36,0,0,0-.79-1.18,1.47,1.47,0,0,0-.88,0,5.82,5.82,0,0,0-2.57,1.72,29.07,29.07,0,0,0-2.32,2.63,1.9,1.9,0,0,1-1,.8c-1,.23-1.65-3.19-1.93-3.93a42.77,42.77,0,0,0-2.23-4.81A40.14,40.14,0,0,0,78.14,331,12.31,12.31,0,0,0,75,328.61c-.45-.24-1.26-.69-1.78-.47-1,.39-.1,1.76.19,2.4a30.58,30.58,0,0,1,3.15,11.62c0,.71,0,2.23-.89,2.37a1.83,1.83,0,0,1-1.34-.55c-1.13-1-2.24-1.91-3.32-2.92C68.24,338.49,65.43,337.21,67.28,340.81Z" style="fill: rgb(255, 255, 255); opacity: 0.6; transform-origin: 81.3183px 346.391px;" class="animable"></path></g><g id="elq5tsauocasb"><path d="M83.51,358.23l-.06-1.11c-.06-1.36-.13-2.72-.27-4.08a44.94,44.94,0,0,0-1.38-7.37,45.61,45.61,0,0,0-2.47-6.83c-.5-1.09-1-2.16-1.59-3.22s-1.07-2.19-1.63-3.27c-.08-.15.13-.58.29-.38A20.76,20.76,0,0,1,78.69,335c.63,1.07,1.2,2.17,1.72,3.29a46,46,0,0,1,2.6,7.09,46.63,46.63,0,0,1,1.38,7.31c.14,1.34.21,2.69.28,4,0,.72.06,1.43.1,2.15v0Z" style="fill: rgb(224, 99, 119); opacity: 0.3; transform-origin: 80.4312px 345.379px;" class="animable"></path></g><g id="elz0dbyuld8pi"><path d="M70.24,342.66a32.66,32.66,0,0,1,6.49,11.66l-.94-.54a34.28,34.28,0,0,0-5.64-11C70.11,342.77,70.17,342.58,70.24,342.66Z" style="fill: rgb(224, 99, 119); opacity: 0.3; transform-origin: 73.4336px 348.48px;" class="animable"></path></g><g id="el9u7xkuy0g47"><path d="M89.29,361.57c0-.32-.05-.63-.05-.95a26.71,26.71,0,0,1,.36-4.56A23.85,23.85,0,0,1,93,347.15c.06-.1.13.06.1.13a30.62,30.62,0,0,0-2.63,8.4,27.19,27.19,0,0,0-.32,4.41c0,.68,0,1.36.11,2Z" style="fill: rgb(224, 99, 119); opacity: 0.3; transform-origin: 91.1733px 354.604px;" class="animable"></path></g></g></g><defs>     <filter id="active" height="200%">         <feMorphology in="SourceAlpha" result="DILATED" operator="dilate" radius="2"></feMorphology>                <feFlood flood-color="#32DFEC" flood-opacity="1" result="PINK"></feFlood>        <feComposite in="PINK" in2="DILATED" operator="in" result="OUTLINE"></feComposite>        <feMerge>            <feMergeNode in="OUTLINE"></feMergeNode>            <feMergeNode in="SourceGraphic"></feMergeNode>        </feMerge>    </filter>    <filter id="hover" height="200%">        <feMorphology in="SourceAlpha" result="DILATED" operator="dilate" radius="2"></feMorphology>                <feFlood flood-color="#ff0000" flood-opacity="0.5" result="PINK"></feFlood>        <feComposite in="PINK" in2="DILATED" operator="in" result="OUTLINE"></feComposite>        <feMerge>            <feMergeNode in="OUTLINE"></feMergeNode>            <feMergeNode in="SourceGraphic"></feMergeNode>        </feMerge>            <feColorMatrix type="matrix" values="0   0   0   0   0                0   1   0   0   0                0   0   0   0   0                0   0   0   1   0 "></feColorMatrix>    </filter></defs></svg>